<svg id="Layer_1" data-name="Layer 1" xmlns="http://www.w3.org/2000/svg" viewBox="0 0 37.31 45.73"><defs><style>.cls-1{fill:#f6efe3;}.cls-1,.cls-2,.cls-3{stroke:#000;stroke-linecap:round;stroke-linejoin:round;stroke-width:1.4px;}.cls-2{fill:#c83a2e;}</style></defs><path class="cls-1" d="M36.61,6.71s-7.49,13.2-11.28,21.4S16.73,45,16.73,45,9.31,40.77,14,28.44,27.23,9.11,36.61,6.71Z"/><path class="cls-2" d="M25.21,1.33a14.91,14.91,0,0,0-10.72.78,15.72,15.72,0,0,0-4,2.76c-3.17,3-7.83,6-9.5,15.18C-2,37.06,16.73,45,16.73,45a27.49,27.49,0,0,1,0-17.73,26.43,26.43,0,0,1,2.85-5.78,44.13,44.13,0,0,1,17-14.81A33.53,33.53,0,0,0,25.21,1.33Z"/><path class="cls-3" d="M25.89,21.87a4,4,0,0,0,1-3.15c-.17-1.24-1.46-.41-1.66.84A4.05,4.05,0,0,0,25.89,21.87Z"/><path class="cls-3" d="M24.12,24.84a3.35,3.35,0,0,0-2-.46c-1.22.06-1.12,2.12,0,1.76A4.84,4.84,0,0,0,24.12,24.84Z"/><path class="cls-1" d="M22.45,30.27a10.18,10.18,0,0,0-2,1.81c-.7.93-.22,1.86.68.84A7,7,0,0,0,22.45,30.27Z"/></svg>