<svg id="Layer_1" data-name="Layer 1" xmlns="http://www.w3.org/2000/svg" xmlns:xlink="http://www.w3.org/1999/xlink" viewBox="0 0 64.55 103.5"><defs><style>.cls-1,.cls-2{fill:#c83a2e;}.cls-1,.cls-3{stroke:#000;stroke-linecap:round;stroke-linejoin:round;stroke-width:1.05px;}.cls-3{fill:none;}.cls-4{clip-path:url(#clip-path);}.cls-5{clip-path:url(#clip-path-2);}</style><clipPath id="clip-path"><path class="cls-1" d="M39.8.58S31.72,12.33,29.69,18.93s-8.15,17.67-16,29S6.85,63.25.52,74c0,0,4.27,1.19,6.69,7.91S9.58,92.6,13,94.63,17.17,103,17.17,103,24,83.91,30.74,72.58,39.82,49.83,47.47,37.4L55.12,25a18.63,18.63,0,0,1-4.9-5.13c-2.69-3.82-.28-8.18-3.9-12.25S41.64,5.47,39.8.58Z"/></clipPath><clipPath id="clip-path-2"><path class="cls-1" d="M42.44.52S34.37,12.28,32.33,18.87s-8.15,17.68-16,29-6.84,15.3-13.15,26c0,0,4.26,1.2,6.68,7.92s2.37,10.68,5.78,12.71,4.18,8.36,4.18,8.36,6.78-19.07,13.57-30.4,9.07-22.75,16.73-35.18l7.65-12.43a18.47,18.47,0,0,1-4.9-5.12C50.18,16,52.57,11.62,49,7.54S44.27,5.42,42.44.52Z"/></clipPath></defs><path class="cls-2" d="M39.8.58S31.72,12.33,29.69,18.93s-8.15,17.67-16,29S6.85,63.25.52,74c0,0,4.27,1.19,6.69,7.91S9.58,92.6,13,94.63,17.17,103,17.17,103,24,83.91,30.74,72.58,39.82,49.83,47.47,37.4L55.12,25a18.63,18.63,0,0,1-4.9-5.13c-2.69-3.82-.28-8.18-3.9-12.25S41.64,5.47,39.8.58Z"/><path class="cls-3" d="M39.8.58S31.72,12.33,29.69,18.93s-8.15,17.67-16,29S6.85,63.25.52,74c0,0,4.27,1.19,6.69,7.91S9.58,92.6,13,94.63,17.17,103,17.17,103,24,83.91,30.74,72.58,39.82,49.83,47.47,37.4L55.12,25a18.63,18.63,0,0,1-4.9-5.13c-2.69-3.82-.28-8.18-3.9-12.25S41.64,5.47,39.8.58Z"/><path class="cls-2" d="M39.8.58S31.72,12.33,29.69,18.93s-8.15,17.67-16,29S6.85,63.25.52,74c0,0,4.27,1.19,6.69,7.91S9.58,92.6,13,94.63,17.17,103,17.17,103,24,83.91,30.74,72.58,39.82,49.83,47.47,37.4L55.12,25a18.63,18.63,0,0,1-4.9-5.13c-2.69-3.82-.28-8.18-3.9-12.25S41.64,5.47,39.8.58Z"/><g class="cls-4"><path class="cls-1" d="M39.8.58S31.72,12.33,29.69,18.93s-8.15,17.67-16,29S6.85,63.25.52,74c0,0,4.27,1.19,6.69,7.91S9.58,92.6,13,94.63,17.17,103,17.17,103,24,83.91,30.74,72.58,39.82,49.83,47.47,37.4L55.12,25a18.63,18.63,0,0,1-4.9-5.13c-2.69-3.82-.28-8.18-3.9-12.25S41.64,5.47,39.8.58Z"/><path class="cls-1" d="M45.37,4.5s-6.71,3-10.46,15.58-11.81,20-19.63,33.68A146.55,146.55,0,0,0,3.52,80.39L6,84.54A122.83,122.83,0,0,1,23.42,49.63C36,32.12,37.12,16.07,49.7,10.65S45.37,4.5,45.37,4.5Z"/><path class="cls-1" d="M52.41,16.32S45.71,19.3,42,31.9s-11.81,20-19.63,33.69A145.82,145.82,0,0,0,10.57,92.21l2.5,4.15A123,123,0,0,1,30.45,61.45C43,43.94,44.16,27.89,56.74,22.48S52.41,16.32,52.41,16.32Z"/></g><path class="cls-3" d="M39.8.58S31.72,12.33,29.69,18.93s-8.15,17.67-16,29S6.85,63.25.52,74c0,0,4.27,1.19,6.69,7.91S9.58,92.6,13,94.63,17.17,103,17.17,103,24,83.91,30.74,72.58,39.82,49.83,47.47,37.4L55.12,25a18.63,18.63,0,0,1-4.9-5.13c-2.69-3.82-.28-8.18-3.9-12.25S41.64,5.47,39.8.58Z"/><path class="cls-2" d="M39.8.58S31.72,12.33,29.69,18.93s-8.15,17.67-16,29S6.85,63.25.52,74c0,0,4.27,1.19,6.69,7.91S9.58,92.6,13,94.63,17.17,103,17.17,103,24,83.91,30.74,72.58,39.82,49.83,47.47,37.4L55.12,25a18.63,18.63,0,0,1-4.9-5.13c-2.69-3.82-.28-8.18-3.9-12.25S41.64,5.47,39.8.58Z"/><path class="cls-3" d="M39.8.58S31.72,12.33,29.69,18.93s-8.15,17.67-16,29S6.85,63.25.52,74c0,0,4.27,1.19,6.69,7.91S9.58,92.6,13,94.63,17.17,103,17.17,103,24,83.91,30.74,72.58,39.82,49.83,47.47,37.4L55.12,25a18.63,18.63,0,0,1-4.9-5.13c-2.69-3.82-.28-8.18-3.9-12.25S41.64,5.47,39.8.58Z"/><polygon class="cls-1" points="42.44 0.52 39.8 0.57 40.78 5.63 42.44 0.52"/><path class="cls-1" d="M19.81,102.93l-2.64,0,1.2-6.39S20,101.64,19.81,102.93Z"/><path class="cls-2" d="M42.44.52S34.37,12.28,32.33,18.87s-8.15,17.68-16,29-6.84,15.3-13.15,26c0,0,4.26,1.2,6.68,7.92s2.37,10.68,5.78,12.71,4.18,8.36,4.18,8.36,6.78-19.07,13.57-30.4,9.07-22.75,16.73-35.18l7.65-12.43a18.47,18.47,0,0,1-4.9-5.12C50.18,16,52.57,11.62,49,7.54S44.27,5.42,42.44.52Z"/><g class="cls-5"><path class="cls-1" d="M42.44.52S34.37,12.28,32.33,18.87s-8.15,17.68-16,29-6.84,15.3-13.15,26c0,0,4.26,1.2,6.68,7.92s2.37,10.68,5.78,12.71,4.18,8.36,4.18,8.36,6.78-19.07,13.57-30.4,9.07-22.75,16.73-35.18l7.65-12.43a18.47,18.47,0,0,1-4.9-5.12C50.18,16,52.57,11.62,49,7.54S44.27,5.42,42.44.52Z"/><path class="cls-1" d="M48,4.45S41.3,7.42,37.55,20,25.73,40,17.92,53.71A146.55,146.55,0,0,0,6.16,80.34l2.51,4.15A123,123,0,0,1,26.05,49.58C38.64,32.07,39.76,16,52.34,10.6S48,4.45,48,4.45Z"/><path class="cls-1" d="M55.05,16.27s-6.71,3-10.46,15.58S32.78,51.85,25,65.53A146.55,146.55,0,0,0,13.2,92.16l2.51,4.15A123,123,0,0,1,33.09,61.4c12.59-17.51,13.71-33.56,26.28-39S55.05,16.27,55.05,16.27Z"/></g><path class="cls-3" d="M42.44.52S34.37,12.28,32.33,18.87s-8.15,17.68-16,29-6.84,15.3-13.15,26c0,0,4.26,1.2,6.68,7.92s2.37,10.68,5.78,12.71,4.18,8.36,4.18,8.36,6.78-19.07,13.57-30.4,9.07-22.75,16.73-35.18l7.65-12.43a18.47,18.47,0,0,1-4.9-5.12C50.18,16,52.57,11.62,49,7.54S44.27,5.42,42.44.52Z"/></svg>