<svg id="Layer_1" data-name="Layer 1" xmlns="http://www.w3.org/2000/svg" viewBox="0 0 148.49 99.53"><defs><style>.cls-1{fill:#f6efe3;}.cls-1,.cls-2{stroke:#000;stroke-linecap:round;stroke-linejoin:round;stroke-width:1.4px;}.cls-2{fill:#c83a2e;}</style></defs><path class="cls-1" d="M.74,63.43a.77.77,0,0,1,.07-.3C8.8,51.15,22.13,45,39,35.29,55.53,25.71,78.22,18,98.79,13.44v6.62l2.35,3.8,2.73,4.37,7.56,12.17.89,1.4.47.8,5.12,8.27,1.74,2.77v0h0l5.54,8.92,1,1.55,8,12.83,1.64,2.67.29.47.8,1.27v.14l1,1.41,9.87,9.25v6.63l-6.58-1.32-14.66-2.86-.42-.1-4.41-.89L109,91.17,87,86.85l-5.45-1.08L52.86,80.09,52.24,80l-3-.57L26.83,74.92,22,74l-4.09-.8-6.61-1.31h0l-4.65-.94A7.12,7.12,0,0,1,.74,63.43Z"/><path class="cls-1" d="M.81,63.13l10.43,2.12c.84-1.46,1.78-3,2.77-4.42v0a.8.8,0,0,1,.19-.24c7-10.1,17.52-19.59,31.7-27.76A167.24,167.24,0,0,1,84,17.15v0c.94-.28,1.84-.56,2.78-.8,3.9-1.08,7.93-2,12-2.86V6.81C78.22,11.41,55.53,19.07,39,28.66,22.13,38.35,8.8,44.52.81,56.5.48,57,1.13,62.63.81,63.13Z"/><path class="cls-1" d="M.81,56.5l10.43,2.12c.84-1.46,1.78-3,2.77-4.42v-.05a.77.77,0,0,1,.19-.23c7-10.1,17.52-19.59,31.7-27.76A167.24,167.24,0,0,1,84,10.52v0c.94-.28,1.84-.56,2.78-.8,3.9-1.08,7.93-2,12-2.86L95.41.7C74.84,5.3,55.53,12.44,39,22,21.43,32.12,8.75,44,.81,56.5Z"/><path class="cls-1" d="M11.24,65.23l6.62,1.32,4.09.8,4.88.94,22.46,4.46,3,.56.62.14,4,.8.8.14,23.86,4.75L87,80.22l22,4.32L121.72,87l4.41.89.42.1,14.66,2.86,6.58,1.32-1.7-2.68-1.64-2.68-1.13-1.78L142.67,84l-4.75-7.66-1-1.41v-.14l-.8-1.27-.29-.47-1.64-2.68-8-12.82-1-1.55-5.54-8.92h0V47l-1.74-2.77L112.79,36l-.47-.8-.89-1.41L103.87,21.6l-2.73-4.37-2.35-3.81c-4,.85-8.07,1.79-12,2.87-.94.23-1.84.52-2.78.8v.05A167.24,167.24,0,0,0,45.9,32.78C32.52,40.48,22.32,49.4,15.42,58.89a17.46,17.46,0,0,0-1.22,1.65.77.77,0,0,0-.19.23v0C13,62.28,12.08,63.78,11.24,65.23Z"/><path class="cls-2" d="M17.86,66.54,147.79,92.19l-46.65-75c-18,4.09-34.9,10.33-49.46,18.74C36.18,44.93,24.86,55.41,17.86,66.54Z"/></svg>