<svg id="Layer_1" data-name="Layer 1" xmlns="http://www.w3.org/2000/svg" viewBox="0 0 36.9 30.77"><defs><style>.cls-1,.cls-2{fill:#fca903;}.cls-1{stroke:#000;stroke-linecap:round;stroke-linejoin:round;stroke-width:1px;}</style></defs><path class="cls-1" d="M31.28,18.6A27.42,27.42,0,0,0,21.42,10,27.31,27.31,0,0,0,8.8,6.34L4.33,3.9,1.15,9.73C-1.37,14.34,3.62,21.92,12.3,26.65s17.74,4.83,20.26.22L35.75,21Z"/><path class="cls-1" d="M35.75,21c-2.52,4.61-11.59,4.51-20.27-.22S1.82,8.51,4.33,3.9,15.92-.62,24.6,4.11,38.26,16.42,35.75,21Z"/><path class="cls-2" d="M19,10.77c-4.6-1.22-8.43-3.32-8.89-4.92a2.6,2.6,0,0,1,0-2.06,1.14,1.14,0,0,1,1-.34,9.39,9.39,0,0,1,3.49,1C17.48,5.77,18.63,9.24,19,10.77Z"/><path d="M11.07,4a8.82,8.82,0,0,1,3.3,1c2.28,1,3.4,3.51,3.91,5.14C14,8.79,10.93,6.89,10.59,5.72c-.26-.94-.21-1.46-.08-1.63s.27-.14.56-.14m0-1C9.23,3,9.21,4.49,9.63,6c.58,2,5.21,4.31,10,5.46,0,0-.8-5.61-4.87-7.44A9.92,9.92,0,0,0,11.07,3Z"/><path class="cls-2" d="M30.28,17.42c-1.91,0-4.71-1.7-8.34-5.07a18.17,18.17,0,0,1,2.38-.16,11.55,11.55,0,0,1,5.52,1.21c2.48,1.34,2.67,2.32,2.64,2.68s-.57,1-1.4,1.22A2.63,2.63,0,0,1,30.28,17.42Z"/><path d="M24.32,12.69h0a11.25,11.25,0,0,1,5.29,1.15c1.93,1,2.4,1.87,2.37,2.19s-.35.57-1.06.8a2.15,2.15,0,0,1-.64.09c-1.16,0-3.32-.76-7.17-4.18.37,0,.78-.05,1.21-.05m0-1a17.55,17.55,0,0,0-3.45.33c3.17,3,6.78,5.89,9.41,5.89a3,3,0,0,0,.95-.15c2.15-.7,2.9-2.62-1.15-4.81a12.29,12.29,0,0,0-5.76-1.26Z"/><path class="cls-1" d="M19.31,12.07S12.84,10.3,10.77,10,8.89,12.9,12.5,14.91C17.19,17.53,19.31,12.07,19.31,12.07Z"/><path class="cls-2" d="M25.08,20.07a9.49,9.49,0,0,1-4.2-1.15A3.13,3.13,0,0,1,19,16.69c-.18-1.35.88-2.74,1.42-3.35A67.24,67.24,0,0,1,26.36,19c.21.27.29.5.23.63S26,20.07,25.08,20.07Z"/><path d="M20.47,14.05A61.31,61.31,0,0,1,26,19.31l.08.12a2.57,2.57,0,0,1-1,.14,9,9,0,0,1-4-1.09,2.7,2.7,0,0,1-1.63-1.85,3.84,3.84,0,0,1,1-2.58m-.09-1.4s-4.48,4.18.27,6.71a9.88,9.88,0,0,0,4.43,1.21c1.64,0,2.58-.68,1.68-1.86a74.44,74.44,0,0,0-6.38-6.06Z"/><path class="cls-2" d="M21.14,10.6A26.27,26.27,0,0,1,20,6.52a.3.3,0,0,1,.09-.26A1.25,1.25,0,0,1,20.94,6a6.24,6.24,0,0,1,2.75.86c2.55,1.37,2.69,2.11,2.68,2.3s-.44.56-1.12.8A15.26,15.26,0,0,1,21.14,10.6Z"/><path d="M20.94,6.5h0a5.61,5.61,0,0,1,2.52.8c1.9,1,2.31,1.63,2.39,1.8a2.25,2.25,0,0,1-.76.39,14,14,0,0,1-3.6.59,24.48,24.48,0,0,1-1-3.51,1.18,1.18,0,0,1,.46-.07m0-1c-1,0-1.51.42-1.47,1a31.28,31.28,0,0,0,1.32,4.55h0a16.23,16.23,0,0,0,4.6-.67c2-.69,2.3-2-1.48-4a6.58,6.58,0,0,0-3-.91Z"/></svg>