<svg id="Layer_1" data-name="Layer 1" xmlns="http://www.w3.org/2000/svg" viewBox="0 0 143.95 125.33"><defs><style>.cls-1{fill:#fca903;}.cls-1,.cls-2{stroke:#000;stroke-linecap:round;stroke-linejoin:round;stroke-width:1.4px;}.cls-2{fill:#f6efe3;}</style></defs><path class="cls-1" d="M30.23,52.06l-16.93,7,4,30.7,126,24.92V84.46l-9.56-2.87-1-1.37v-.14L132,78.85l-.27-.45-1.6-2.6-7.74-12.43-1-1.5L116,53.21h0v0l-1.68-2.69-5-8-.45-.77L108,40.32l-7.33-11.79L98,24.29,95.75,20.6V14.18c-20,4.46-41.95,11.89-58,21.18C27.11,41.46,37.47,48.15,30.23,52.06Z"/><path class="cls-1" d="M13.3,59.08,143.22,84.73l-46.64-75c-18,4.09-34.9,10.33-49.46,18.74C31.62,37.47,20.3,48,13.3,59.08Z"/><path class="cls-2" d="M76.91.72a1.79,1.79,0,0,1,.76.05c2.92.9,24,7.85,18.29,9.13C31.67,24.43,14.28,58.31,14.28,58.31c0,12.65,9.1,28,20.73,33.27,4.76,2.14,9.93,3.16,15.05,4.17q29.46,5.81,58.92,11.63c8,1.58,31,6.77,34.24,6.77v10.48c-34-6.6-68.29-12.31-102.08-19.83q-2.61-.58-5.22-1.21c-5.6-1.37-11.22-3-16.17-5.92-10-5.93-14.42-18-16.43-28.89L.7,55.71c-.11-.59,2-2.87,2.28-3.34q2.52-3.57,5.24-7a124.14,124.14,0,0,1,30.6-27.25A149.2,149.2,0,0,1,57,8.22C62.88,5.51,69.65,2.06,76.06.9,76.35.85,76.63.76,76.91.72Z"/></svg>