<svg id="Layer_1" data-name="Layer 1" xmlns="http://www.w3.org/2000/svg" xmlns:xlink="http://www.w3.org/1999/xlink" viewBox="0 0 88.06 80.79"><defs><style>.cls-1,.cls-7{fill:none;}.cls-2,.cls-6{fill:#c83a2e;}.cls-2,.cls-7{stroke:#000;stroke-linecap:round;stroke-linejoin:round;stroke-width:1.05px;}.cls-3{clip-path:url(#clip-path);}.cls-4{fill:#fca903;}.cls-5{fill:#f5eee2;}.cls-8{clip-path:url(#clip-path-2);}.cls-9{clip-path:url(#clip-path-3);}</style><clipPath id="clip-path"><rect class="cls-1" x="-90.2" y="-305.39" width="384.05" height="213.25"/></clipPath><clipPath id="clip-path-2"><path class="cls-2" d="M.52,16s7.79,12,13.11,16.35S26.87,46.59,34.37,58.18,45.91,70.33,53.43,80.27c0,0,2.73-3.49,9.87-3.17s10.78,1.89,14-.49,9.31-.68,9.31-.68-15-13.54-22.93-24.13S46.06,34.73,37.49,22.92L28.92,11.11a18.4,18.4,0,0,1-6.61,2.57c-4.56,1-7.67-2.85-12.81-1.06S5.74,16.14.52,16Z"/></clipPath><clipPath id="clip-path-3"><path class="cls-2" d="M1.48,13.51s7.79,12,13.11,16.35S27.83,44.13,35.33,55.72,46.87,67.87,54.39,77.81c0,0,2.73-3.49,9.87-3.17S75,76.53,78.21,74.15s9.32-.68,9.32-.68-15-13.54-22.93-24.13S47,32.28,38.45,20.46L29.88,8.65a18.5,18.5,0,0,1-6.61,2.58c-4.56,1-7.67-2.85-12.81-1.07S6.7,13.68,1.48,13.51Z"/></clipPath></defs><g class="cls-3"><path class="cls-4" d="M107.6,6.34A144.47,144.47,0,0,1-19.9-70c-3.09-1.51-6.21-3-9.23-4.38C-37.69-78.38-45.78-82.16-51-86c-4.92-3.65-7.53-24.85-7.87-43-.35-18.66,1.49-42.24,7.71-52.43,2.08-3.43,9.22-6.69,18.26-10.82,2.57-1.17,5.22-2.38,7.89-3.66A144.59,144.59,0,0,1,107.6-282.85a144.65,144.65,0,0,1,132.49,86.63c2.84,1.37,5.68,2.66,8.42,3.92,9.05,4.12,16.19,7.38,18.28,10.82,6.21,10.19,8,33.77,7.7,52.43-.34,18.16-2.95,39.36-7.87,43-5.21,3.86-13.28,7.64-21.84,11.63-3.18,1.49-6.47,3-9.74,4.63l-.1,0A144.45,144.45,0,0,1,107.6,6.34Z"/><path d="M107.6-282.2a144,144,0,0,1,132,86.46c11.95,5.78,24,10.28,26.64,14.59,11.68,19.17,8.62,88.2,0,94.59-7.06,5.25-19.39,10.29-31.47,16.2l-.14-.14a143.9,143.9,0,0,1-127,76.19,143.91,143.91,0,0,1-127-76.18c-12-5.86-24.18-10.86-31.19-16.07-8.61-6.38-11.67-75.42,0-94.59,2.59-4.24,14.33-8.67,26.1-14.33A144,144,0,0,1,107.6-282.2m0-1.3A145.25,145.25,0,0,0-25.51-196.44c-2.59,1.24-5.16,2.41-7.66,3.55-9.14,4.17-16.36,7.47-18.55,11.07-2,3.28-8.47,16.79-7.8,52.79.36,18.92,3,39.72,8.14,43.52s13.38,7.7,22,11.72c3,1.38,6,2.81,9,4.28A145.11,145.11,0,0,0,107.6,7,145.1,145.1,0,0,0,235.41-69.23c3.23-1.58,6.49-3.1,9.65-4.58,8.58-4,16.69-7.8,21.95-11.7s7.78-24.6,8.13-43.53c.67-36-5.8-49.5-7.8-52.78-2.19-3.6-9.41-6.9-18.56-11.08-2.67-1.21-5.43-2.47-8.19-3.8a145.3,145.3,0,0,0-133-86.8Z"/><circle class="cls-5" cx="107.6" cy="-138.26" r="144.59"/><path d="M107.6-282.2A143.94,143.94,0,0,1,251.54-138.26,143.94,143.94,0,0,1,107.6,5.69,144,144,0,0,1-36.35-138.26a144,144,0,0,1,144-143.94m0-1.3A144.33,144.33,0,0,0,4.89-241a144.3,144.3,0,0,0-42.54,102.7A144.31,144.31,0,0,0,4.89-35.55,144.33,144.33,0,0,0,107.6,7,144.3,144.3,0,0,0,210.3-35.55a144.31,144.31,0,0,0,42.54-102.71A144.3,144.3,0,0,0,210.3-241,144.3,144.3,0,0,0,107.6-283.5Z"/></g><path class="cls-6" d="M.52,16s7.79,12,13.11,16.35S26.87,46.59,34.37,58.18,45.91,70.33,53.43,80.27c0,0,2.73-3.49,9.87-3.17s10.78,1.89,14-.49,9.31-.68,9.31-.68-15-13.54-22.93-24.13S46.06,34.73,37.49,22.92L28.92,11.11a18.4,18.4,0,0,1-6.61,2.57c-4.56,1-7.67-2.85-12.81-1.06S5.74,16.14.52,16Z"/><path class="cls-7" d="M.52,16s7.79,12,13.11,16.35S26.87,46.59,34.37,58.18,45.91,70.33,53.43,80.27c0,0,2.73-3.49,9.87-3.17s10.78,1.89,14-.49,9.31-.68,9.31-.68-15-13.54-22.93-24.13S46.06,34.73,37.49,22.92L28.92,11.11a18.4,18.4,0,0,1-6.61,2.57c-4.56,1-7.67-2.85-12.81-1.06S5.74,16.14.52,16Z"/><path class="cls-6" d="M.52,16s7.79,12,13.11,16.35S26.87,46.59,34.37,58.18,45.91,70.33,53.43,80.27c0,0,2.73-3.49,9.87-3.17s10.78,1.89,14-.49,9.31-.68,9.31-.68-15-13.54-22.93-24.13S46.06,34.73,37.49,22.92L28.92,11.11a18.4,18.4,0,0,1-6.61,2.57c-4.56,1-7.67-2.85-12.81-1.06S5.74,16.14.52,16Z"/><g class="cls-8"><path class="cls-2" d="M.52,16s7.79,12,13.11,16.35S26.87,46.59,34.37,58.18,45.91,70.33,53.43,80.27c0,0,2.73-3.49,9.87-3.17s10.78,1.89,14-.49,9.31-.68,9.31-.68-15-13.54-22.93-24.13S46.06,34.73,37.49,22.92L28.92,11.11a18.4,18.4,0,0,1-6.61,2.57c-4.56,1-7.67-2.85-12.81-1.06S5.74,16.14.52,16Z"/><path class="cls-2" d="M6.27,12.33s.2,7.33,10.42,15.6,14,18.55,23.66,31a145.36,145.36,0,0,0,20.14,21l4.79-.73A122.84,122.84,0,0,1,39.63,49.82c-11.39-18.31-25.8-25.46-26-39.15S6.27,12.33,6.27,12.33Z"/><path class="cls-2" d="M19.88,10.32s.2,7.33,10.42,15.61,14,18.54,23.66,31a146.23,146.23,0,0,0,20.14,21l4.79-.73A123.09,123.09,0,0,1,53.24,47.82c-11.39-18.31-25.8-25.46-26-39.15S19.88,10.32,19.88,10.32Z"/></g><path class="cls-7" d="M.52,16s7.79,12,13.11,16.35S26.87,46.59,34.37,58.18,45.91,70.33,53.43,80.27c0,0,2.73-3.49,9.87-3.17s10.78,1.89,14-.49,9.31-.68,9.31-.68-15-13.54-22.93-24.13S46.06,34.73,37.49,22.92L28.92,11.11a18.4,18.4,0,0,1-6.61,2.57c-4.56,1-7.67-2.85-12.81-1.06S5.74,16.14.52,16Z"/><path class="cls-6" d="M.52,16s7.79,12,13.11,16.35S26.87,46.59,34.37,58.18,45.91,70.33,53.43,80.27c0,0,2.73-3.49,9.87-3.17s10.78,1.89,14-.49,9.31-.68,9.31-.68-15-13.54-22.93-24.13S46.06,34.73,37.49,22.92L28.92,11.11a18.4,18.4,0,0,1-6.61,2.57c-4.56,1-7.67-2.85-12.81-1.06S5.74,16.14.52,16Z"/><path class="cls-7" d="M.52,16s7.79,12,13.11,16.35S26.87,46.59,34.37,58.18,45.91,70.33,53.43,80.27c0,0,2.73-3.49,9.87-3.17s10.78,1.89,14-.49,9.31-.68,9.31-.68-15-13.54-22.93-24.13S46.06,34.73,37.49,22.92L28.92,11.11a18.4,18.4,0,0,1-6.61,2.57c-4.56,1-7.67-2.85-12.81-1.06S5.74,16.14.52,16Z"/><polygon class="cls-2" points="1.48 13.52 0.52 15.97 5.57 17 1.48 13.52"/><path class="cls-2" d="M87.53,73.47l-1,2.46-5.45-3.54S86.4,72.82,87.53,73.47Z"/><path class="cls-6" d="M1.48,13.51s7.79,12,13.11,16.35S27.83,44.13,35.33,55.72,46.87,67.87,54.39,77.81c0,0,2.73-3.49,9.87-3.17S75,76.53,78.21,74.15s9.32-.68,9.32-.68-15-13.54-22.93-24.13S47,32.28,38.45,20.46L29.88,8.65a18.5,18.5,0,0,1-6.61,2.58c-4.56,1-7.67-2.85-12.81-1.07S6.7,13.68,1.48,13.51Z"/><g class="cls-9"><path class="cls-2" d="M1.48,13.51s7.79,12,13.11,16.35S27.83,44.13,35.33,55.72,46.87,67.87,54.39,77.81c0,0,2.73-3.49,9.87-3.17S75,76.53,78.21,74.15s9.32-.68,9.32-.68-15-13.54-22.93-24.13S47,32.28,38.45,20.46L29.88,8.65a18.5,18.5,0,0,1-6.61,2.58c-4.56,1-7.67-2.85-12.81-1.07S6.7,13.68,1.48,13.51Z"/><path class="cls-2" d="M7.23,9.87s.19,7.33,10.42,15.6,14,18.55,23.66,31a146.5,146.5,0,0,0,20.13,21l4.8-.73A122.84,122.84,0,0,1,40.59,47.36c-11.4-18.31-25.8-25.46-26-39.15S7.23,9.87,7.23,9.87Z"/><path class="cls-2" d="M20.84,7.86s.2,7.33,10.42,15.61,14,18.54,23.66,31a146,146,0,0,0,20.14,21l4.79-.73A122.84,122.84,0,0,1,54.2,45.36C42.81,27.05,28.4,19.9,28.18,6.21S20.84,7.86,20.84,7.86Z"/></g><path class="cls-7" d="M1.48,13.51s7.79,12,13.11,16.35S27.83,44.13,35.33,55.72,46.87,67.87,54.39,77.81c0,0,2.73-3.49,9.87-3.17S75,76.53,78.21,74.15s9.32-.68,9.32-.68-15-13.54-22.93-24.13S47,32.28,38.45,20.46L29.88,8.65a18.5,18.5,0,0,1-6.61,2.58c-4.56,1-7.67-2.85-12.81-1.07S6.7,13.68,1.48,13.51Z"/></svg>