<svg id="Layer_1" data-name="Layer 1" xmlns="http://www.w3.org/2000/svg" viewBox="0 0 43.19 51.8"><defs><style>.cls-1{fill:#a1c40c;}.cls-1,.cls-3{stroke:#000;stroke-linecap:round;stroke-linejoin:round;stroke-width:1.4px;}.cls-2,.cls-3{fill:#f6efe3;}</style></defs><path class="cls-1" d="M26.11,7.89C21.74,10.7,17.34,15.55,14,21.73S8.9,34.25,8.89,39.44L5.47,45.71l8.19,4.47c6.48,3.54,17.12-3.47,23.76-15.65s6.78-24.91.3-28.44L29.53,1.62Z"/><path class="cls-1" d="M29.53,1.62c6.48,3.53,6.35,16.27-.3,28.44S12,49.25,5.47,45.71s-6.34-16.27.3-28.44S23.06-1.92,29.53,1.62Z"/><path class="cls-2" d="M6.44,37.89c-1,0-1.26-.4-1.35-.53-.33-.52-.63-2,1.18-6s6.7-5.69,8.86-6.22C13.41,31.58,10.46,37,8.21,37.6a6.36,6.36,0,0,1-1.77.29Z"/><path d="M14.12,26.13c-1.77,6-4.44,10.33-6.1,10.8a6.21,6.21,0,0,1-1.58.26c-.23,0-.64,0-.76-.21S5,35.79,6.91,31.63c1.43-3.2,4.92-4.78,7.21-5.5m2-1.92Zm0,0S8.2,25.34,5.63,31.06C3,37,4.29,38.59,6.44,38.59a7.52,7.52,0,0,0,2-.31c2.85-.81,6.05-7.31,7.67-14.07Z"/><path class="cls-2" d="M17.35,21c-.31-2.33-.62-7.24,1.46-11.09C20.62,6.56,22,6.2,22.47,6.2c.73,0,1.41.73,1.82,2C25.15,10.78,22.81,15.09,17.35,21Z"/><path d="M22.47,6.9c.4,0,.86.6,1.15,1.49.42,1.27.14,4.33-5.74,11-.17-2.48-.06-6.14,1.55-9.11,1.75-3.25,2.91-3.34,3-3.34m0-1.4c-1.2,0-2.69,1.14-4.27,4.07-3,5.52-1.31,12.93-1.31,12.93,4.8-5,9.29-10.82,8.06-14.55C24.47,6.49,23.6,5.5,22.47,5.5Z"/><path class="cls-3" d="M16.94,24.69s-2.48,9.08-2.92,12,4.09,2.63,6.91-2.42C24.61,27.67,16.94,24.69,16.94,24.69Z"/><path class="cls-2" d="M23,25.17a7.19,7.19,0,0,1-4.27-2c1.44-1.65,6.06-6.9,8-8.35a1.3,1.3,0,0,1,.75-.35c.06,0,.2,0,.37.28.64,1.07.56,4.36-1.25,7.77C25.61,24.27,24.41,25.17,23,25.17Z"/><path d="M27.47,15.14h0m-.18.08c.37.85.35,3.75-1.35,6.94-1.23,2.31-2.52,2.31-2.94,2.31a5.9,5.9,0,0,1-3.27-1.41,83.29,83.29,0,0,1,7.39-7.72l.17-.12m.15-1.48a2,2,0,0,0-1.17.49c-2.34,1.78-8.51,9-8.51,9s2.51,2.69,5.24,2.69c1.44,0,2.95-.75,4.17-3.06,2.31-4.33,2.14-9.07.27-9.07Z"/><path class="cls-2" d="M9.11,23.76a.48.48,0,0,1-.45-.28c-.44-.74-.31-2.55,1-4.94,1.88-3.49,2.92-3.76,3.19-3.76s.82.57,1.16,1.57a21.34,21.34,0,0,1,.9,5.78,37.36,37.36,0,0,1-5.73,1.63Z"/><path d="M12.85,15.48h0m-.08,0a2.87,2.87,0,0,1,.55,1.06,20,20,0,0,1,.84,5.06,35.43,35.43,0,0,1-4.94,1.42c-.18-.41-.22-1.86,1-4.18,1.43-2.67,2.28-3.25,2.52-3.36m.05-1.43c-1,0-2.22,1.19-3.8,4.12-2,3.77-1.4,6.26.09,6.26H9.2a44.11,44.11,0,0,0,6.38-1.84,23.08,23.08,0,0,0-.94-6.5c-.43-1.26-1-2-1.82-2Z"/></svg>