<svg id="Layer_1" data-name="Layer 1" xmlns="http://www.w3.org/2000/svg" viewBox="0 0 42.49 39.05"><defs><style>.cls-1{fill:#f6efe3;}.cls-1,.cls-2,.cls-3{stroke:#000;stroke-linecap:round;stroke-linejoin:round;stroke-width:1.4px;}.cls-2{fill:#fca903;}</style></defs><path class="cls-1" d="M10,.7s10.83,9.77,17.73,15S41.79,27.29,41.79,27.29s-5.53,6.08-16.14-.85S10.28,10,10,.7Z"/><path class="cls-2" d="M25.17,23.6a25.2,25.2,0,0,1-4.84-3.87A42.43,42.43,0,0,1,10,.7a32.23,32.23,0,0,0-7.41,9.58A14.33,14.33,0,0,0,1.07,20.5C6.37,28.07,16.66,26.82,25.17,23.6Z"/><path class="cls-2" d="M2.83,24.78c2.14,3.58,4,8.58,12.28,12,15.31,6.42,26.68-9.54,26.68-9.54A26.3,26.3,0,0,1,25.17,23.6c-8.51,3.22-18.8,4.47-24.1-3.1A15.61,15.61,0,0,0,2.83,24.78Z"/><path class="cls-3" d="M22,13.9a3.8,3.8,0,0,0-2.75-1.56c-1.19-.1-.68,1.28.45,1.73A3.8,3.8,0,0,0,22,13.9Z"/><path class="cls-3" d="M24.38,16.18a3.22,3.22,0,0,0-.84,1.76c-.19,1.16,1.76,1.49,1.66.34A4.64,4.64,0,0,0,24.38,16.18Z"/><path class="cls-1" d="M29.13,18.87a9.7,9.7,0,0,0,1.29,2.22c.73.86,1.7.6.93-.46A6.83,6.83,0,0,0,29.13,18.87Z"/></svg>