<svg id="Layer_1" data-name="Layer 1" xmlns="http://www.w3.org/2000/svg" viewBox="0 0 36.76 51.63"><defs><style>.cls-1,.cls-2{fill:#fca903;}.cls-2,.cls-4{stroke:#000;stroke-linecap:round;stroke-linejoin:round;stroke-width:1.4px;}.cls-3,.cls-4{fill:#f6efe3;}</style></defs><path class="cls-1" d="M22.48,43.79c2.54-4.53,4.16-10.88,4.24-17.92s-1.38-13.43-3.81-18L23,.7,13.67.59C6.29.5.17,11.67,0,25.54S5.68,50.73,13.06,50.82l9.33.11Z"/><path class="cls-2" d="M22.39,50.93C15,50.84,9.16,39.53,9.33,25.65S15.62.61,23,.7,36.22,12.11,36.05,26,29.77,51,22.39,50.93Z"/><path class="cls-3" d="M24.11,23.41c-1.51-6.5-1.43-12.64.26-14.26C25.55,8,26.32,7.78,26.75,7.78c1.19,0,2,2.18,2.27,6C29.32,18.25,25.77,21.94,24.11,23.41Z"/><path d="M26.75,8.48c.34,0,1.28,1,1.57,5.34.23,3.5-2.11,6.53-3.79,8.23-1.25-6.13-.92-11.2.32-12.39s1.74-1.18,1.9-1.18m0-1.4a4.68,4.68,0,0,0-2.86,1.57c-2.14,2-1.93,9.29-.2,16,0,0,6.44-4.68,6-10.93-.33-5-1.55-6.65-3-6.65Z"/><path class="cls-3" d="M25.93,43.71a3.11,3.11,0,0,1-2-1c-2-1.91-1.94-6.81.13-14.58C25.45,30,28,34.22,28,38.59,28,41.8,27.19,43.71,25.93,43.71Z"/><path d="M24.37,29.8c1.32,2.12,2.94,5.41,2.91,8.78,0,2.91-.7,4.43-1.35,4.43a2.55,2.55,0,0,1-1.49-.83c-1-.93-2.15-3.76-.07-12.38m-.59-3.24c-1.9,6.68-3.14,13.91-.31,16.63a3.72,3.72,0,0,0,2.46,1.22c1.48,0,2.72-1.6,2.75-5.82.05-6.27-4.9-12-4.9-12Z"/><path class="cls-4" d="M22.71,24.65s-2.06-9.19-3-12-4.85-.41-5,5.39C14.54,25.61,22.71,24.65,22.71,24.65Z"/><path class="cls-3" d="M18.09,38.66a1.13,1.13,0,0,1-.68-.41c-1.08-1.08-2.17-3.88-2.17-7.15,0-3.06,1.41-4.55,4.27-4.55a9.75,9.75,0,0,1,2.34.31C21.36,29,19.73,35.79,18.73,38,18.63,38.17,18.38,38.66,18.09,38.66Z"/><path d="M19.51,27.25h0a9.57,9.57,0,0,1,1.5.14A84.72,84.72,0,0,1,18.1,37.67l-.1.19c-.73-.58-2.06-3.15-2.06-6.76,0-2.66,1.11-3.85,3.57-3.85m0-1.4c-2.28,0-5,.93-5,5.25s1.95,8.26,3.55,8.26c.48,0,.92-.34,1.28-1.1,1.23-2.67,3.32-11.9,3.32-11.9a11,11,0,0,0-3.18-.51Z"/><path class="cls-3" d="M30.77,31.53c-.22,0-.7-.12-1.54-.9A21.41,21.41,0,0,1,25.73,26,37.28,37.28,0,0,1,30,21.82a.46.46,0,0,1,.26-.08.91.91,0,0,1,.57.3c.28.29,1.22,1.47,1.2,4.62C32,30.25,31.37,31.53,30.77,31.53Z"/><path d="M30.39,22.41h0m-.09.07c.35.28,1.06,1.54,1.05,4.18,0,3-.5,3.93-.66,4.15a3.11,3.11,0,0,1-1-.69A19.46,19.46,0,0,1,26.6,26a34.46,34.46,0,0,1,3.7-3.56m0-1.44a1.18,1.18,0,0,0-.63.19,43.51,43.51,0,0,0-4.77,4.61,22.76,22.76,0,0,0,3.87,5.3,3.28,3.28,0,0,0,2,1.09c1.16,0,1.95-1.56,2-5.56C32.77,23,31.48,21,30.28,21Z"/></svg>