<svg id="Layer_1" data-name="Layer 1" xmlns="http://www.w3.org/2000/svg" viewBox="0 0 296.97 161.18"><defs><style>.cls-1,.cls-2{fill:#f6efe3;stroke:#000;stroke-miterlimit:10;stroke-width:1.4px;}.cls-2{stroke-dasharray:3.55;}</style></defs><path class="cls-1" d="M39.91,156a3.59,3.59,0,0,0,2.68,4.4h0a3.57,3.57,0,0,0,4.25-2.58,111.68,111.68,0,0,1,20.5-41.33,1.58,1.58,0,0,0-.15-2.14l-2.91-2.74a1.61,1.61,0,0,0-2.34.16A118.79,118.79,0,0,0,39.91,156Z"/><path class="cls-1" d="M2,115.73a2,2,0,0,1-1.22-2.56A118.72,118.72,0,0,1,35.51,63.62c16.56-14,35.64-21.79,53.72-21.86,8,0,15.85,1.39,23.45,2.76,4.45.81,9,1.64,13.54,2.15C147,49,167.65,44.25,182.93,33.58c2.78-1.94,5.54-4.17,8.2-6.32,5.49-4.45,11.18-9,18-12,11.16-4.76,26.32-3.12,32.37,7.87,5.28,9.59,1.47,22.47-10.19,34.44-5.31,5.46-11.26,10.69-17,15.74-16.46,14.47-32,28.14-35.49,47.81-.31,1.74-.58,3.94.11,5.53,1.1,2.54,4.72,3.53,7.57,3,3.7-.67,7.08-3.18,10.22-5.69,5.42-4.33,10.71-9.07,15.84-13.64a286.46,286.46,0,0,1,22-18.4C251,80,267.12,74.12,282.35,74.51c3.15.08,7.7.56,10.81,3.79s3.87,8,2.43,13.68c-1.39,5.49-4,10.37-6.61,15.08-1.42,2.61-2.77,5.08-3.91,7.65-1.22,2.74-4.69,11.73-1.13,18.32a2,2,0,0,1-.57,2.5l-2.58,1.93a2,2,0,0,1-2.94-.64c-3.75-6.58-3.54-15.55.68-25,1.26-2.82,2.73-5.54,4.16-8.16,2.46-4.52,4.79-8.79,5.95-13.4.38-1.5,1.08-5.18-.63-7-1.26-1.32-3.95-1.55-5.85-1.6-13.61-.35-28.21,5.07-43.37,16.1-7.5,5.46-14.6,11.81-21.47,18-5.19,4.64-10.57,9.44-16.14,13.89-3.69,2.95-8.07,6.18-13.41,7.14-5.67,1-12.79-1.12-15.43-7.22-1.44-3.34-1.07-6.9-.59-9.62C175.67,97.77,192.9,82.62,209.57,68c5.65-5,11.49-10.1,16.61-15.36,3.5-3.59,14.49-16.09,9-26-4-7.33-15.23-8.17-23.28-4.73C206,24.4,201,28.5,195.63,32.83c-2.75,2.23-5.61,4.54-8.6,6.63-16.93,11.82-38.81,16.91-61.61,14.33-4.74-.53-9.46-1.39-14-2.22-7.61-1.38-14.8-2.68-22.14-2.65-16.4.07-33.84,7.23-49.13,20.17A111.7,111.7,0,0,0,7.57,115.58a2,2,0,0,1-2.52,1.2Z"/><path class="cls-2" d="M189.51,66.19a127,127,0,0,0-17.94-.52c-9.35.17-18.19.33-26.3-2.74-12.62-4.78-20.83-16.22-29.52-28.32S98.05,10,84,4.09C74.54.13,63-.38,51.55,2.66A65.8,65.8,0,0,0,27.36,14.88l4.49,5.59A58.64,58.64,0,0,1,53.38,9.58C63.33,7,73.23,7.34,81.25,10.7,93.42,15.78,101.44,27,109.93,38.79c8.93,12.43,18.16,25.29,32.8,30.84,9.4,3.56,19.35,3.38,29,3.2a122,122,0,0,1,16.92.47c14.46,1.8,29.26,14.59,37,25.69,3,0,3.85-4.6,6.63-4.6C223.85,79.63,207.66,68.45,189.51,66.19Z"/></svg>