<svg id="Layer_1" data-name="Layer 1" xmlns="http://www.w3.org/2000/svg" xmlns:xlink="http://www.w3.org/1999/xlink" viewBox="0 0 647.22 714.92"><defs><style>.cls-1{fill:none;}.cls-2{isolation:isolate;}.cls-3{clip-path:url(#clip-path);}.cls-4{fill:#fca903;}.cls-5{fill:#f6efe3;}</style><clipPath id="clip-path"><polygon class="cls-1" points="94.63 699.82 93.44 280.18 552.58 15.1 553.77 434.74 94.63 699.82"/></clipPath></defs><g class="cls-2"><g class="cls-3"><path d="M131.41,586.79l-2,1.18.12,42c.63,5.6,3.43,9.16,8.3,10.52a15.38,15.38,0,0,0,5.6.43,14.79,14.79,0,0,1-3.16-.51c-5.12-1.42-8.05-5.18-8.72-11.18l-.12-42.46m29.48-28.43c1.28.61,1.64,2.33,1.65,4.07l.13,48.23a10.53,10.53,0,0,1-2.15,6,24.69,24.69,0,0,1-1.74,2.12,16.07,16.07,0,0,0,4.2-4.17,8.35,8.35,0,0,0,1.71-4.8l-.13-48.23c0-3-1.22-4.13-3.67-3.26m-.88-79.2.1,0c1.46.41,2.2,1.66,2.2,3.72l.1,34.84,2-1.16-.1-34.48c0-1.68-.58-2.66-1.75-3a6.18,6.18,0,0,0-2.57.06m-11.47-9.56a58.41,58.41,0,0,0-12,13.4c-4.94,7.48-7.43,14.57-7.41,21.07l.13,46.76c0,6,2.23,10.17,6.58,12.29a14.94,14.94,0,0,0,7.52,1.09,14.87,14.87,0,0,1-5.15-1.2c-4.59-2.23-6.91-6.61-6.93-13l-.14-46.75c0-6.89,2.61-14.38,7.81-22.25a62.51,62.51,0,0,1,9.56-11.42"/><path d="M149.41,574.84l-21.23,12.45.13,43.48c.68,6.05,3.63,9.83,8.78,11.26,5,1.39,11,.11,18-3.79a24.53,24.53,0,0,1-11.65,2.7,15.38,15.38,0,0,1-5.6-.43c-4.87-1.36-7.67-4.92-8.3-10.52l-.12-42,2-1.18V586l18-10.57v-.55m9.66-15.61-1.23.71c2.36-.84,3.48.21,3.49,3.18l.14,48.23a8,8,0,0,1-1.65,4.62,16.65,16.65,0,0,1-3.8,3.9,6.82,6.82,0,0,0,2.57-.93l.19-.12a24.69,24.69,0,0,0,1.74-2.12,10.53,10.53,0,0,0,2.15-6l-.13-48.23c0-1.74-.37-3.46-1.65-4.07a10.51,10.51,0,0,0-1.82.87m-.74-21.62-3.11,1.8a6.22,6.22,0,0,0,2.5-.92l3.69-2.13c1.25-.72,2.45-1.35,3.6-1.88a38.42,38.42,0,0,0-6.68,3.13m-.13-57.72a9.63,9.63,0,0,0-1.28.87,6,6,0,0,1,2.5-.05c1.13.32,1.68,1.27,1.69,2.89l.1,36.22,3.22-1.86v-1.38l-2,1.16-.1-34.84c0-2.06-.74-3.31-2.2-3.72l-.1,0a6.61,6.61,0,0,0-1.81.73m-3.12-16.18a57.68,57.68,0,0,0-19.27,18.65c-5.23,7.93-7.88,15.48-7.86,22.41l.13,46.76c0,6.43,2.37,10.83,7,13.08,5.39,2.33,11.92,1.36,19.41-2.91a23.42,23.42,0,0,1-11.08,2.51,14.94,14.94,0,0,1-7.52-1.09c-4.35-2.12-6.56-6.26-6.58-12.29l-.13-46.76c0-6.5,2.47-13.59,7.41-21.07a58.41,58.41,0,0,1,12-13.4,52.52,52.52,0,0,1,9.61-7.14c1.24-.72,2.45-1.35,3.64-1.9a40.36,40.36,0,0,0-6.71,3.15"/><path d="M205.34,456.92l-2,1.17.42,148.27,2-1.17-.42-148.27m-13.19-11-2,1.16.05,17,2-1.16,0-17"/><path d="M203.32,458.09l-1.21.69.43,149.66,3.22-1.86v-1.39l-2,1.17-.42-148.27m32.78-38.95-47.18,27.24.06,19.8,3.22-1.87v-1.38l-2,1.16-.05-17,2-1.16V445l44-25.38v-.52"/><path d="M248.22,413.53l-2,1.16L246.61,560c0,6.63,2.55,10.88,7.52,12.65a15.39,15.39,0,0,0,6.48.67,15.2,15.2,0,0,1-4.07-.76c-5.23-1.86-7.89-6.36-7.91-13.36l-.41-145.65m33-19.06-2,1.17.42,147.5a10.62,10.62,0,0,1-2.12,6,18.31,18.31,0,0,1-1.57,2,13.83,13.83,0,0,0,4-4,8.34,8.34,0,0,0,1.71-4.82l-.42-147.86"/><path d="M266.22,401.75,245,414l.42,146.67c0,7.07,2.7,11.59,8,13.46s11.52.59,18.72-3.47a24.4,24.4,0,0,1-11.49,2.63,15.39,15.39,0,0,1-6.48-.67c-5-1.77-7.5-6-7.52-12.65l-.41-145.29,2-1.16v-.86l18-10.4v-.52m33-19.05L278,395l.43,148.87a8.19,8.19,0,0,1-1.66,4.66,13.77,13.77,0,0,1-3.63,3.76,6.19,6.19,0,0,0,2.49-.88l.31-.19a18.31,18.31,0,0,0,1.57-2,10.62,10.62,0,0,0,2.12-6l-.42-147.5,2-1.17v-.85l18-10.4v-.52"/><path d="M342.14,375.61l.18.05c1.31.35,2,1.52,2,3.46l.36,124.63a10,10,0,0,1-2,5.75,25.43,25.43,0,0,1-1.59,2A11.68,11.68,0,0,0,343,510a20.42,20.42,0,0,0,2.1-2.53,7.77,7.77,0,0,0,1.54-4.52l-.36-124.62c0-1.56-.52-2.45-1.56-2.74a4.5,4.5,0,0,0-2.62,0m-28.88.37-2,1.16L311.72,544l2-1.17L313.26,376"/><path d="M340.27,376.43l-1.48.86a4.44,4.44,0,0,1,2.8-.1c1,.27,1.5,1.13,1.51,2.63l.35,124.63a7.33,7.33,0,0,1-1.48,4.34,18.82,18.82,0,0,1-2.06,2.49,11.71,11.71,0,0,1-2.32,1.76l-3,1.71v.52l6-3.48.44-.27a25.43,25.43,0,0,0,1.59-2,10,10,0,0,0,2-5.75l-.36-124.63c0-1.94-.67-3.11-2-3.46l-.18-.05a8.27,8.27,0,0,0-1.87.82M337,360.89l-27,15.57.48,169.64,3.23-1.86v-1.39l-2,1.17-.48-166.88,2-1.16v-.86l26.81-15.48c2.32-1.34,4.43-2.44,6.3-3.3a58.79,58.79,0,0,0-9.38,4.55"/><polyline points="380.06 337.41 378.05 338.57 378.52 505.44 380.54 504.28 380.06 337.41"/><polyline points="397.75 325.81 376.84 337.89 377.32 507.53 380.54 505.67 380.54 504.28 378.52 505.44 378.05 338.57 380.06 337.41 380.06 336.55 397.75 326.33 397.75 325.81"/><path d="M444.61,314.73l.25.1c1.39.4,2.13,1.59,2.13,3.53l.36,128.13a10.51,10.51,0,0,1-2.15,6,20.91,20.91,0,0,1-1.57,2,14.19,14.19,0,0,0,4-4.05,8.35,8.35,0,0,0,1.73-4.82L449,317.55c0-1.56-.58-2.47-1.75-2.81a3.59,3.59,0,0,0-2.65,0M433,305.37a58.66,58.66,0,0,0-11.79,13.09c-4.93,7.47-7.43,14.63-7.41,21.25l.35,123.71c0,6.62,2.55,10.87,7.51,12.64a15.33,15.33,0,0,0,6.43.67,15.14,15.14,0,0,1-4-.75c-5.24-1.86-7.9-6.36-7.92-13.37l-.35-123.7c0-7,2.61-14.56,7.81-22.43A62.75,62.75,0,0,1,433,305.37"/><path d="M442.88,315.53a12,12,0,0,0-1.12.73,3.28,3.28,0,0,1,2.33.09c1.14.32,1.69,1.21,1.69,2.7l.37,128.14a8.12,8.12,0,0,1-1.68,4.65,13.94,13.94,0,0,1-3.75,3.85,7.2,7.2,0,0,0,2.56-.93l.35-.21a20.91,20.91,0,0,0,1.57-2,10.51,10.51,0,0,0,2.15-6L447,318.36c0-1.94-.74-3.13-2.13-3.53l-.25-.1a9.32,9.32,0,0,0-1.73.8m-3.12-16.18a58.45,58.45,0,0,0-19.27,18.47c-5.24,7.93-7.88,15.53-7.86,22.59L413,464.12c0,7.06,2.7,11.58,8,13.46s11.55.56,18.83-3.54a24.74,24.74,0,0,1-11.65,2.69,15.33,15.33,0,0,1-6.43-.67c-5-1.77-7.5-6-7.51-12.64l-.35-123.71c0-6.62,2.48-13.78,7.41-21.25A58.66,58.66,0,0,1,433,305.37a53.84,53.84,0,0,1,9.79-7.28c1.25-.72,2.47-1.35,3.66-1.9a39.45,39.45,0,0,0-6.73,3.16"/><path d="M478.57,386.36l-2,1.18.12,42c.63,5.6,3.42,9.16,8.3,10.51a15.38,15.38,0,0,0,5.6.44,14.2,14.2,0,0,1-3.16-.52c-5.12-1.41-8.05-5.18-8.72-11.17l-.12-42.46m29.48-28.43c1.28.61,1.64,2.33,1.65,4.07l.13,48.23a10.56,10.56,0,0,1-2.15,6,26.34,26.34,0,0,1-1.74,2.12,16.38,16.38,0,0,0,4.2-4.17,8.35,8.35,0,0,0,1.71-4.8l-.13-48.23c0-3.06-1.22-4.14-3.67-3.26m-.88-79.2h.1c1.46.41,2.2,1.67,2.2,3.73l.1,34.84,2-1.17-.1-34.48c0-1.68-.58-2.66-1.75-3a6.18,6.18,0,0,0-2.57.06m-11.47-9.56a58.41,58.41,0,0,0-12,13.4c-4.94,7.48-7.43,14.57-7.41,21.07l.13,46.76c0,6,2.23,10.16,6.58,12.29a15,15,0,0,0,7.51,1.09,14.86,14.86,0,0,1-5.14-1.2c-4.59-2.23-6.92-6.61-6.93-13l-.14-46.76c0-6.88,2.61-14.37,7.81-22.24a62.18,62.18,0,0,1,9.56-11.42"/><path d="M496.57,374.41l-21.23,12.45.13,43.48c.68,6,3.63,9.83,8.78,11.26,5,1.38,11,.11,18-3.79a24.59,24.59,0,0,1-11.64,2.7,15.38,15.38,0,0,1-5.6-.44c-4.88-1.35-7.67-4.91-8.3-10.51l-.12-42,2-1.18v-.84l18-10.56v-.55m9.66-15.61-1.23.71c2.36-.84,3.48.2,3.49,3.18l.14,48.23a8,8,0,0,1-1.65,4.62,16.39,16.39,0,0,1-3.8,3.89,7,7,0,0,0,2.57-.92l.19-.12a26.34,26.34,0,0,0,1.74-2.12,10.56,10.56,0,0,0,2.15-6L509.7,362c0-1.74-.37-3.46-1.65-4.07a10.51,10.51,0,0,0-1.82.87m-.74-21.62-3.12,1.8a6.36,6.36,0,0,0,2.51-.92l3.69-2.13c1.24-.72,2.45-1.35,3.6-1.88a37.37,37.37,0,0,0-6.68,3.13m-.13-57.72a9.63,9.63,0,0,0-1.28.87,6,6,0,0,1,2.5-.05c1.13.32,1.68,1.26,1.69,2.88l.1,36.23,3.22-1.86v-1.39l-2,1.17-.1-34.84c0-2.06-.74-3.32-2.2-3.73h-.1a6.61,6.61,0,0,0-1.81.73m-3.12-16.18A57.68,57.68,0,0,0,483,281.93c-5.24,7.93-7.88,15.47-7.86,22.41l.13,46.76c0,6.43,2.37,10.82,7,13.08,5.39,2.33,11.92,1.35,19.41-2.91a23.43,23.43,0,0,1-11.09,2.51,15,15,0,0,1-7.51-1.09c-4.35-2.13-6.56-6.26-6.58-12.29l-.13-46.76c0-6.5,2.47-13.59,7.41-21.07a58.41,58.41,0,0,1,12-13.4,52.07,52.07,0,0,1,9.61-7.14c1.24-.72,2.45-1.35,3.64-1.9a38.81,38.81,0,0,0-6.71,3.15"/><path d="M134.05,400.7l-2,1.18L132,444c.61,5.62,3.38,9.21,8.23,10.6a15.42,15.42,0,0,0,5.73.46,14.78,14.78,0,0,1-3.29-.54c-5.09-1.46-8-5.25-8.65-11.27l.06-42.55m29.52-28.3c1.08.53,1.64,1.9,1.63,4.11l-.07,48.35a10.61,10.61,0,0,1-2.17,6c-.57.77-1.14,1.46-1.7,2.08a16.15,16.15,0,0,0,4.17-4.14,8.37,8.37,0,0,0,1.72-4.79l.07-48.34c0-1.87-.44-3-1.32-3.42a3.19,3.19,0,0,0-2.33.12M163,293l.12,0c1.47.42,2.19,1.69,2.19,3.76l0,34.92,2-1.16.05-34.58c0-1.69-.56-2.67-1.73-3A6.11,6.11,0,0,0,163,293m-11.53-9.53a58.28,58.28,0,0,0-11.84,13.22c-5,7.47-7.48,14.56-7.49,21.08l-.06,46.87c0,6,2.18,10.2,6.51,12.36a15,15,0,0,0,7.59,1.14A14.85,14.85,0,0,1,141,376.9c-4.57-2.27-6.88-6.66-6.86-13.06l.06-46.88c0-6.9,2.66-14.38,7.88-22.25a62.8,62.8,0,0,1,9.43-11.23"/><path d="M152.06,388.85l-21.23,12.34-.06,43.58c.65,6.06,3.58,9.88,8.71,11.35s11.13.17,18.15-3.79a24.81,24.81,0,0,1-11.7,2.73,15.42,15.42,0,0,1-5.73-.46c-4.85-1.39-7.62-5-8.23-10.6l.06-42.12,2-1.18v-.85l18-10.46v-.54M160.44,374a3.09,3.09,0,0,1,2.29-.13c.85.39,1.27,1.48,1.27,3.32l-.07,48.35a8,8,0,0,1-1.66,4.6A16.72,16.72,0,0,1,158.5,434a6.76,6.76,0,0,0,2.53-.91h0l.2-.12c.56-.62,1.13-1.31,1.7-2.08a10.61,10.61,0,0,0,2.17-6l.07-48.35c0-2.21-.55-3.58-1.63-4.11a10.73,10.73,0,0,0-1.81.86l-1.28.73,0,0M158,353.35a6.25,6.25,0,0,0,2.47-.89l3.68-2.12c1.19-.67,2.33-1.26,3.43-1.77a38.13,38.13,0,0,0-6.5,3L158,353.35m3.15-59.61a11.35,11.35,0,0,0-1.27.86,6.11,6.11,0,0,1,2.52,0c1.12.34,1.67,1.28,1.67,2.92l-.05,36.3,3.22-1.84v-1.39l-2,1.16,0-34.92c0-2.07-.72-3.34-2.19-3.76l-.12,0a6.69,6.69,0,0,0-1.78.71l0,0m-3-16.25-.18.11a57.68,57.68,0,0,0-19.12,18.46C133.63,304,131,311.51,131,318.47l-.07,46.87c0,6.45,2.31,10.87,6.91,13.17,5.38,2.38,11.93,1.42,19.47-2.86a23.48,23.48,0,0,1-11.07,2.5A15,15,0,0,1,138.6,377c-4.33-2.16-6.52-6.32-6.51-12.36l.06-46.87c0-6.52,2.53-13.61,7.49-21.08a58.28,58.28,0,0,1,11.84-13.22,52.8,52.8,0,0,1,9.61-7.15l.16-.09c1.19-.68,2.35-1.27,3.47-1.8a41,41,0,0,0-6.54,3.05"/><polyline points="199.15 257.67 198.91 424.95 200.93 423.79 201.16 256.52 199.15 257.67"/><polyline points="197.94 256.97 197.7 426.34 197.7 427.03 200.93 425.18 200.93 424.83 200.93 423.79 198.91 424.95 199.15 257.67 201.16 256.52 201.16 255.64 218.86 245.53 218.85 245.01 197.94 256.97"/><path d="M256.41,326.53l0,15.33,6.36,46.59,2-1.12-8.3-60.8m33.85-20.93-2,16.74-.07,51.59,2-1.15.1-67.18M288.11,207l-15.64,93.66,1,4.94,16.67-99.77L288.11,207m-54,30.9L233.84,405l2-1.15.24-167.09-2,1.15"/><path d="M256.39,341.86l0,9.54,5.34,39,3.18-1.82-.18-1.28-2,1.12-6.36-46.59m31.83-19.52-1.22,10L286.94,376l3.22-1.85v-1.38l-2,1.15.07-51.59m-1.09-116.18-15.28,91.53.62,3L288.11,207l2.06-1.17.16-1,18.08-10.34V194l-21.28,12.16m-54.26,31-.24,169.18v.69l3.22-1.84v-1.39l-2,1.15.23-167.09,2-1.15v-.88l17.5-10-.09-.46-20.63,11.8"/><path d="M343.4,276.79l0,15.36,6.36,46.57,2-1.13-8.31-60.8m33.85-20.93-2,16.69-.07,51.64,2-1.15.09-67.18m-2.15-98.6-15.64,93.66,1,4.94,16.67-99.78-2.06,1.18m-54,30.89-.24,167.1,2-1.16L323.08,187l-2,1.15"/><path d="M343.38,292.15l0,9.51,5.34,39,3.18-1.82-.17-1.29-2,1.13-6.36-46.57m31.83-19.6-1.22,10-.06,43.74,3.23-1.84V323l-2,1.15.07-51.64m-1.09-116.12L358.84,248l.62,3,15.64-93.66,2.06-1.18.16-1,18.08-10.34v-.51l-21.28,12.17m-54.26,31-.24,169.17v.7l3.22-1.84v-1.4l-2,1.16.24-167.1,2-1.15v-.88l17.51-10-.1-.46-20.63,11.81"/><polyline points="408.05 138.24 407.82 305.51 409.84 304.36 410.07 137.08 408.05 138.24"/><path d="M430.48,274.11v.51l16.61-9.5v-.5l-16.61,9.49m.11-74.92v.51l10-5.74v-.51l-10,5.74m-23.74-61.66-.24,169.37v.69l3.22-1.84v-1.39l-2,1.15.23-167.28,2-1.15v-.89l37.24-21.28v-.51l-40.46,23.13"/><path d="M490.57,190.83c1.6.55,2.41,2.39,2.41,5.47l-.09,60.57,2-1.15.08-60.23c0-3-.81-4.62-2.5-4.86a5.16,5.16,0,0,0-1.92.2M491,107.3c1.43.43,2.15,1.62,2.14,3.56l0,20.49c0,5.43-.05,11.16-.11,17s0,10.38.06,13.77v0a14.64,14.64,0,0,1-.89,5.38,12.52,12.52,0,0,1-2.56,4,20.49,20.49,0,0,0,2.54-2.19A10,10,0,0,0,494.3,166a12.84,12.84,0,0,0,.74-4.67c-.11-3.4-.12-8.05-.06-13.81s.1-11.59.1-17l0-20.48c0-1.56-.56-2.49-1.73-2.83a4.32,4.32,0,0,0-2.43.08m-31,1.25-.24,167.29,2-1.16L462,107.4l-2,1.15"/><path d="M484.4,193.58c2.26-1,3.91-1.48,4.94-1.34,1.64.22,2.44,1.78,2.43,4.75l-.09,62,3.22-1.84v-1.39l-2,1.15L493,196.3c0-3.08-.81-4.92-2.41-5.47a28.82,28.82,0,0,0-6.17,2.75M487.54,109a4.32,4.32,0,0,1,2.67-.18c1.13.33,1.68,1.23,1.68,2.73l0,20.48c0,5.43,0,11.16-.1,17s0,10.41.05,13.82a12.46,12.46,0,0,1-.72,4.56,9.66,9.66,0,0,1-2.11,3.22,22,22,0,0,1-3.9,3.1c-.69.45-1.45.92-2.27,1.42v.58c2-1.18,3.85-2.28,5.36-3.25.49-.32,1-.64,1.4-1a12.52,12.52,0,0,0,2.56-4,14.64,14.64,0,0,0,.89-5.38v0c-.1-3.39-.12-8-.06-13.77s.1-11.59.11-17l0-20.49c0-1.94-.71-3.13-2.14-3.56a9.18,9.18,0,0,0-1.94.86l-1.47.84m-28.78-1.14-.24,169.36v.7l3.22-1.85v-1.39l-2,1.16L460,108.55l2-1.15v-.88l27-15.47q2.93-1.67,5.49-2.83A56,56,0,0,0,486,92.3l-27.2,15.56"/><path class="cls-4" d="M158.15,463.51a55.65,55.65,0,0,0-18.59,18c-5,7.54-7.49,14.69-7.47,21.24l.13,46.75c0,6.09,2.25,10.25,6.63,12.39,5.23,2.27,11.6,1.27,18.93-3l1.29-.74c4.17-2.41,6.39-1.41,6.4,2.92l.14,48.23a10.33,10.33,0,0,1-2.1,5.86,17.49,17.49,0,0,1-4.91,4.8,6.2,6.2,0,0,1-4.93.89c-1.4-.4-2.11-1.56-2.12-3.44l-.12-42.18-19.1,11.21.11,42.19c.64,5.66,3.45,9.25,8.36,10.61s10.92,0,17.84-3.95a53.85,53.85,0,0,0,17.65-16.53v0c5-6.95,7.81-13.8,8.42-20.36v-.12l-.14-48.23A24.26,24.26,0,0,0,182,538.47a9.71,9.71,0,0,0-6.9-5c-3.55-.59-8.17.74-13.71,3.94l-3.68,2.13c-1.94,1.11-3.5,1.35-4.66.68s-1.74-1.73-1.75-3.6l-.13-46.94a10.67,10.67,0,0,1,2.09-6.06,15.55,15.55,0,0,1,4.92-4.78,7,7,0,0,1,4.9-.9c1.43.41,2.14,1.62,2.14,3.63l.1,35,19.11-11-.09-33c0-6.43-2.62-10.62-7.73-12.46-4.94-2-11.15-.82-18.48,3.41"/><path d="M157.78,558.92c-7.33,4.23-13.7,5.23-18.93,3-4.38-2.14-6.61-6.3-6.63-12.39l-.13-46.75c0-6.55,2.49-13.7,7.47-21.24a55.65,55.65,0,0,1,18.59-18c7.33-4.23,13.54-5.38,18.48-3.41,5.11,1.84,7.71,6,7.73,12.46l.09,33-19.11,11-.1-35c0-2-.71-3.22-2.14-3.63a7,7,0,0,0-4.9.9,15.55,15.55,0,0,0-4.92,4.78,10.67,10.67,0,0,0-2.09,6.06l.13,46.94c0,1.87.61,3.08,1.75,3.6s2.72.43,4.66-.68l3.68-2.13c5.54-3.2,10.16-4.53,13.71-3.94a9.71,9.71,0,0,1,6.9,5,24.26,24.26,0,0,1,2.56,11.59l.14,48.23v.12c-.61,6.56-3.44,13.41-8.42,20.36v0a53.85,53.85,0,0,1-17.65,16.53c-6.92,4-12.92,5.32-17.84,3.95s-7.72-4.95-8.36-10.61l-.11-42.19,19.1-11.21.12,42.18c0,1.88.72,3,2.12,3.44a6.2,6.2,0,0,0,4.93-.89,17.49,17.49,0,0,0,4.91-4.8,10.33,10.33,0,0,0,2.1-5.86l-.14-48.23c0-4.33-2.23-5.33-6.4-2.92l-1.29.74m.37-96.46a52.52,52.52,0,0,0-9.61,7.14A62.51,62.51,0,0,0,139,481c-5.2,7.87-7.82,15.36-7.81,22.25l.14,46.75c0,6.38,2.34,10.76,6.93,13a14.87,14.87,0,0,0,5.15,1.2,23.42,23.42,0,0,0,11.08-2.51c1.08-.5,2.19-1.08,3.32-1.73l.05,0,1.23-.71a10.51,10.51,0,0,1,1.82-.87c2.45-.87,3.66.21,3.67,3.26l.13,48.23a8.35,8.35,0,0,1-1.71,4.8,16.07,16.07,0,0,1-4.2,4.17l-.19.12a6.82,6.82,0,0,1-2.57.93,4.33,4.33,0,0,1-1.8-.15c-1.18-.33-1.75-1.25-1.75-2.81l-.13-43.24-2.93,1.72-18,10.57v.83l.12,42.46c.67,6,3.6,9.76,8.72,11.18a14.79,14.79,0,0,0,3.16.51,24.53,24.53,0,0,0,11.65-2.7c1.16-.54,2.36-1.16,3.58-1.87a55.27,55.27,0,0,0,18.2-17.06c5.2-7.26,8.16-14.43,8.79-21.36l-.14-48.4a25,25,0,0,0-2.65-12c-1.85-3-4.29-4.81-7.23-5.24s-6.45.26-10.6,2.18c-1.15.53-2.35,1.16-3.6,1.88l-3.69,2.13a6.22,6.22,0,0,1-2.5.92,2.56,2.56,0,0,1-1.52-.31c-1-.44-1.46-1.42-1.46-3l-.14-46.94a8.64,8.64,0,0,1,1.74-5,15.13,15.13,0,0,1,3.08-3.38,9.63,9.63,0,0,1,1.28-.87,6.61,6.61,0,0,1,1.81-.73,6.18,6.18,0,0,1,2.57-.06c1.17.34,1.75,1.32,1.75,3l.1,34.48v1.57l20.94-12.09-.1-34c0-6.75-2.73-11.16-8.05-13.08-4.27-1.7-9.44-1.15-15.43,1.61-1.19.55-2.4,1.18-3.64,1.9"/><polyline class="cls-4" points="238.13 419.55 193.06 445.56 193.11 462.92 206.25 455.34 206.67 605.19 225.46 594.35 225.04 444.49 238.18 436.9 238.13 419.55"/><path d="M193.11,462.92l-.05-17.36,45.07-26,.05,17.35L225,444.49l.42,149.86-18.79,10.84-.42-149.85-13.14,7.58M239,418l-2.93,1.69-44,25.38v.86l0,17v1.58l9.91-5.73,1.21-.69,2-1.17.42,148.27v1.58l20.62-11.91L226,445l13.13-7.59L239,418"/><path class="cls-4" d="M301.24,383.1l-19.1,11,.41,147.67a10.35,10.35,0,0,1-2.06,5.85,15.32,15.32,0,0,1-4.86,4.76c-1.79,1-3.38,1.29-4.73.76-1.47-.33-2.23-1.46-2.24-3.35l-.42-147.67-19.11,11,.42,145.46c0,6.68,2.56,11,7.57,12.74s11.35.52,18.47-3.59A55.24,55.24,0,0,0,294,550.08c5.09-7.61,7.66-14.85,7.64-21.52l-.42-145.46"/><path d="M275.63,552.42a15.32,15.32,0,0,0,4.86-4.76,10.35,10.35,0,0,0,2.06-5.85l-.41-147.67,19.1-11,.42,145.46c0,6.67-2.55,13.91-7.64,21.52a55.24,55.24,0,0,1-18.43,17.72c-7.12,4.11-13.34,5.32-18.47,3.59s-7.56-6.06-7.57-12.74l-.42-145.46,19.11-11,.42,147.67c0,1.89.77,3,2.24,3.35,1.35.53,2.94.27,4.73-.76m26.52-170.89-2.92,1.69-18,10.4v.85l.42,147.86a8.34,8.34,0,0,1-1.71,4.82,13.83,13.83,0,0,1-4,4l-.31.19a6.19,6.19,0,0,1-2.49.88,3.52,3.52,0,0,1-1.68-.22c-1.26-.29-1.87-1.18-1.88-2.73l-.42-148.72-2.93,1.69-18,10.4v.86l.41,145.65c0,7,2.68,11.5,7.91,13.36a15.2,15.2,0,0,0,4.07.76,24.4,24.4,0,0,0,11.49-2.63c1.14-.53,2.31-1.14,3.5-1.82a57.11,57.11,0,0,0,19-18.28c5.31-8,8-15.53,8-22.53l-.42-146.51"/><path class="cls-4" d="M333.72,516.85l-.39-137.46,6.94-4c1.89-1.09,3.58-1.42,5-.95,1.27.34,1.92,1.47,1.93,3.36l.35,124.62a9.74,9.74,0,0,1-1.91,5.59,22.43,22.43,0,0,1-2.33,2.8,13,13,0,0,1-2.69,2l-6.94,4m6.35-156.16-25.9,14.95.48,167.21,25.89-15a59.14,59.14,0,0,0,10.81-7.79,55.14,55.14,0,0,0,8.06-9.63,45.81,45.81,0,0,0,5.6-11.15,33,33,0,0,0,1.69-10.16L366.36,369a18.93,18.93,0,0,0-1.75-8.37,8.81,8.81,0,0,0-5.63-4.65,14,14,0,0,0-7.85-.27c-2.71.66-6.44,2.35-11.06,5"/><path d="M338.79,377.29l1.48-.86a8.27,8.27,0,0,1,1.87-.82,4.5,4.5,0,0,1,2.62,0c1,.29,1.56,1.18,1.56,2.74l.36,124.62a7.77,7.77,0,0,1-1.54,4.52A20.42,20.42,0,0,1,343,510a11.68,11.68,0,0,1-1.94,1.53l-.44.27-6,3.48v-.52l-.38-134.84,4.54-2.62m1.48-1.91-6.94,4,.39,137.46,6.94-4a13,13,0,0,0,2.69-2,22.43,22.43,0,0,0,2.33-2.8,9.74,9.74,0,0,0,1.91-5.59l-.35-124.62c0-1.89-.66-3-1.93-3.36-1.46-.47-3.15-.14-5,.95M314.65,542.85l-.48-167.21,25.9-14.95c4.62-2.67,8.35-4.36,11.06-5a14,14,0,0,1,7.85.27,8.81,8.81,0,0,1,5.63,4.65,18.93,18.93,0,0,1,1.75,8.37l.34,120.21A33,33,0,0,1,365,499.33a45.81,45.81,0,0,1-5.6,11.15,55.14,55.14,0,0,1-8.06,9.63,59.14,59.14,0,0,1-10.81,7.79l-25.89,15m25.42-183.21-26.81,15.48V376l.47,166.87v1.58L340.55,529a60.58,60.58,0,0,0,11.07-8A56.68,56.68,0,0,0,360,511a48.25,48.25,0,0,0,5.86-11.7,34.7,34.7,0,0,0,1.77-10.64l-.34-120.21a19.85,19.85,0,0,0-1.82-8.75,9.29,9.29,0,0,0-5.91-4.9,14.48,14.48,0,0,0-8.16-.27,29.18,29.18,0,0,0-5,1.83c-1.87.86-4,2-6.3,3.3"/><polyline class="cls-4" points="399.77 326.22 380.98 337.07 381.46 504.28 400.25 493.43 399.77 326.22"/><path d="M381.46,504.28,381,337.07l18.79-10.85.48,167.21-18.79,10.85m19.22-179.64-2.93,1.7-17.69,10.21v.86l.48,166.87v1.58L401.16,494l-.48-169.31"/><path class="cls-4" d="M443.28,455.81a6.21,6.21,0,0,1-4.93.89c-1.4-.4-2.11-1.55-2.12-3.44l-.36-128.12a10.37,10.37,0,0,1,2.09-5.88,14,14,0,0,1,4.92-4.78c2-1.17,3.69-1.47,4.95-.88,1.37.39,2.09,1.54,2.09,3.43l.37,128.12a10.36,10.36,0,0,1-2.1,5.87,15.55,15.55,0,0,1-4.91,4.79m-.44-156.67A56.42,56.42,0,0,0,424.23,317c-5,7.54-7.48,14.74-7.46,21.42l.35,123.71c0,6.67,2.56,11,7.57,12.73s11.4.5,18.63-3.68a55.17,55.17,0,0,0,18.44-17.72c5.08-7.61,7.65-14.85,7.64-21.52L469,308.2c0-6.67-2.62-10.93-7.72-12.65s-11.26-.58-18.48,3.59"/><path d="M441.76,316.26a12,12,0,0,1,1.12-.73,9.32,9.32,0,0,1,1.73-.8,3.59,3.59,0,0,1,2.65,0c1.17.34,1.75,1.25,1.75,2.81l.36,128.13a8.35,8.35,0,0,1-1.73,4.82,14.19,14.19,0,0,1-4,4.05l-.35.21a7.2,7.2,0,0,1-2.56.93,4.24,4.24,0,0,1-1.82-.15c-1.17-.33-1.74-1.25-1.75-2.81l-.36-128.12a8.52,8.52,0,0,1,1.76-4.87,12,12,0,0,1,3.21-3.48m1.12-1.78a14,14,0,0,0-4.92,4.78,10.37,10.37,0,0,0-2.09,5.88l.36,128.12c0,1.89.72,3,2.12,3.44a6.21,6.21,0,0,0,4.93-.89,15.55,15.55,0,0,0,4.91-4.79,10.36,10.36,0,0,0,2.1-5.87L449.92,317c0-1.89-.72-3-2.09-3.43-1.26-.59-2.93-.29-4.95.88m.44,156.66c-7.23,4.18-13.5,5.42-18.63,3.68s-7.55-6.06-7.57-12.73l-.35-123.71c0-6.68,2.49-13.88,7.46-21.42a56.42,56.42,0,0,1,18.61-17.82c7.22-4.17,13.44-5.37,18.48-3.59s7.71,6,7.72,12.65l.36,123.7c0,6.67-2.56,13.91-7.64,21.52a55.17,55.17,0,0,1-18.44,17.72m-.49-173a53.84,53.84,0,0,0-9.79,7.28,62.75,62.75,0,0,0-9.38,11.11c-5.2,7.87-7.83,15.42-7.81,22.43l.35,123.7c0,7,2.68,11.51,7.92,13.37a15.14,15.14,0,0,0,4,.75A24.74,24.74,0,0,0,439.78,474c1.16-.54,2.34-1.15,3.55-1.85a56.92,56.92,0,0,0,19-18.28c5.31-7.94,8-15.53,8-22.53L470,307.67c0-7-2.74-11.47-8.07-13.26-4.33-1.54-9.5-.94-15.4,1.78-1.19.55-2.41,1.18-3.66,1.9"/><path class="cls-4" d="M505.31,263.07a55.78,55.78,0,0,0-18.59,18c-5,7.54-7.49,14.69-7.47,21.24l.13,46.75c0,6.08,2.25,10.25,6.63,12.39,5.23,2.27,11.6,1.27,18.93-3l1.29-.74c4.17-2.41,6.39-1.41,6.4,2.91l.14,48.23a10.33,10.33,0,0,1-2.1,5.87,17.32,17.32,0,0,1-4.92,4.79,6.14,6.14,0,0,1-4.92.89c-1.4-.39-2.11-1.55-2.12-3.43l-.12-42.18L479.48,386l.12,42.18c.64,5.67,3.45,9.26,8.35,10.62s10.93,0,17.85-3.95a53.85,53.85,0,0,0,17.65-16.53v0c5-6.94,7.81-13.79,8.42-20.35v-.12l-.13-48.23A24.26,24.26,0,0,0,529.18,338c-1.77-2.9-4.09-4.59-6.9-5-3.55-.59-8.17.74-13.71,3.94l-3.68,2.12c-1.94,1.12-3.5,1.36-4.66.69s-1.74-1.73-1.75-3.6l-.13-46.94a10.67,10.67,0,0,1,2.09-6.06,15.62,15.62,0,0,1,4.91-4.78,7,7,0,0,1,4.91-.9c1.42.4,2.14,1.62,2.14,3.63l.1,35,19.11-11-.09-33c0-6.43-2.62-10.62-7.73-12.46-4.94-2-11.15-.83-18.48,3.4"/><path d="M504.94,358.49c-7.33,4.23-13.7,5.23-18.93,3-4.38-2.14-6.61-6.31-6.63-12.39l-.13-46.75c0-6.55,2.49-13.7,7.47-21.24a55.78,55.78,0,0,1,18.59-18c7.33-4.23,13.54-5.37,18.48-3.4,5.11,1.84,7.71,6,7.73,12.46l.09,33-19.11,11-.1-35c0-2-.72-3.23-2.14-3.63a7,7,0,0,0-4.91.9,15.62,15.62,0,0,0-4.91,4.78,10.67,10.67,0,0,0-2.09,6.06l.13,46.94c0,1.87.61,3.08,1.75,3.6s2.72.43,4.66-.69l3.68-2.12c5.54-3.2,10.16-4.53,13.71-3.94,2.81.41,5.13,2.1,6.9,5a24.26,24.26,0,0,1,2.56,11.59l.13,48.23V398c-.61,6.56-3.44,13.41-8.42,20.35v0a53.85,53.85,0,0,1-17.65,16.53c-6.92,4-12.92,5.32-17.85,3.95s-7.71-4.95-8.35-10.62L479.48,386l19.11-11.21.12,42.18c0,1.88.72,3,2.12,3.43a6.14,6.14,0,0,0,4.92-.89,17.32,17.32,0,0,0,4.92-4.79,10.33,10.33,0,0,0,2.1-5.87l-.14-48.23c0-4.32-2.23-5.32-6.4-2.91l-1.29.74m.37-96.46a52.07,52.07,0,0,0-9.61,7.14,62.18,62.18,0,0,0-9.56,11.42c-5.2,7.87-7.83,15.36-7.81,22.24l.14,46.76c0,6.38,2.34,10.76,6.93,13a14.86,14.86,0,0,0,5.14,1.2,23.43,23.43,0,0,0,11.09-2.51c1.08-.51,2.19-1.08,3.32-1.73l.05,0,1.23-.71a10.51,10.51,0,0,1,1.82-.87c2.45-.88,3.66.2,3.67,3.26l.13,48.23a8.35,8.35,0,0,1-1.71,4.8,16.38,16.38,0,0,1-4.2,4.17l-.19.12a7,7,0,0,1-2.57.92,4.33,4.33,0,0,1-1.8-.14c-1.18-.34-1.75-1.26-1.75-2.81l-.13-43.24L496.57,375l-18,10.56v.84l.12,42.46c.67,6,3.6,9.76,8.72,11.17a14.2,14.2,0,0,0,3.16.52,24.59,24.59,0,0,0,11.64-2.7c1.17-.54,2.37-1.17,3.59-1.87A55.4,55.4,0,0,0,524,418.87c5.2-7.25,8.16-14.42,8.79-21.35l-.14-48.4a25,25,0,0,0-2.65-12c-1.86-3-4.29-4.81-7.23-5.24s-6.45.25-10.6,2.18c-1.15.53-2.36,1.16-3.6,1.88l-3.69,2.13a6.36,6.36,0,0,1-2.51.92,2.63,2.63,0,0,1-1.51-.31c-1-.45-1.46-1.42-1.46-3l-.14-46.94a8.64,8.64,0,0,1,1.74-5,14.92,14.92,0,0,1,3.08-3.38,9.63,9.63,0,0,1,1.28-.87,6.61,6.61,0,0,1,1.81-.73,6.18,6.18,0,0,1,2.57-.06c1.17.33,1.75,1.31,1.75,3l.1,34.48v1.57l20.94-12.08-.1-34c0-6.76-2.73-11.17-8.06-13.08-4.26-1.7-9.43-1.16-15.42,1.61-1.19.55-2.4,1.18-3.64,1.9"/><path class="cls-4" d="M161.08,277.39a55.62,55.62,0,0,0-18.45,17.81c-5,7.53-7.54,14.67-7.55,21.24L135,363.31c0,6.09,2.2,10.29,6.56,12.47,5.21,2.3,11.57,1.35,18.9-2.84l1.28-.73c2.08-1.2,3.68-1.56,4.75-1.06s1.63,1.84,1.62,4l-.06,48.35a10.44,10.44,0,0,1-2.12,5.87,17.15,17.15,0,0,1-4.91,4.76,6.11,6.11,0,0,1-4.93.86c-1.39-.4-2.09-1.57-2.09-3.46l.06-42.28L135,400.38l-.06,42.28c.61,5.68,3.41,9.3,8.29,10.7s10.9.12,17.82-3.83l.07,0a53.59,53.59,0,0,0,17.6-16.4l0,0c5-6.92,7.86-13.77,8.48-20.33v-.13l.07-48.35a24.26,24.26,0,0,0-2.51-11.62c-1.75-2.93-4.07-4.64-6.86-5.07-3.55-.61-8.15.68-13.69,3.85l-3.68,2.11c-1.94,1.1-3.5,1.33-4.65.65s-1.73-1.75-1.72-3.62l.06-47.06a10.57,10.57,0,0,1,2.11-6.05,15.39,15.39,0,0,1,4.88-4.74l.05,0a6.92,6.92,0,0,1,4.89-.86c1.42.41,2.12,1.64,2.12,3.65l-.05,35.09,19.11-10.93.05-33.06c0-6.44-2.57-10.66-7.66-12.54-4.91-2-11.12-.9-18.44,3.29l-.18.09"/><path d="M161,434.15a17.15,17.15,0,0,0,4.91-4.76,10.44,10.44,0,0,0,2.12-5.87l.06-48.35c0-2.18-.54-3.53-1.62-4s-2.67-.14-4.75,1.06l-1.28.73c-7.33,4.19-13.69,5.14-18.9,2.84-4.36-2.18-6.57-6.38-6.56-12.47l.06-46.87c0-6.57,2.55-13.71,7.55-21.24a55.62,55.62,0,0,1,18.45-17.81l.18-.09c7.32-4.19,13.53-5.3,18.44-3.29,5.09,1.88,7.67,6.1,7.66,12.54l-.05,33.06L168.2,330.54l.05-35.09c0-2-.7-3.24-2.12-3.65a6.92,6.92,0,0,0-4.89.86l-.05,0a15.39,15.39,0,0,0-4.88,4.74,10.57,10.57,0,0,0-2.11,6.05l-.06,47.06c0,1.87.58,3.09,1.72,3.62s2.71.45,4.65-.65l3.68-2.11c5.54-3.17,10.14-4.46,13.69-3.85,2.79.43,5.11,2.14,6.86,5.07a24.26,24.26,0,0,1,2.51,11.62l-.07,48.35v.13c-.62,6.56-3.48,13.41-8.48,20.33l0,0a53.59,53.59,0,0,1-17.6,16.4l-.07,0c-6.92,4-12.91,5.24-17.82,3.83s-7.68-5-8.29-10.7l.06-42.28,19.12-11.11L154,431.55c0,1.89.7,3.06,2.09,3.46a6.11,6.11,0,0,0,4.93-.86m.05-157.82a52.8,52.8,0,0,0-9.61,7.15,62.8,62.8,0,0,0-9.43,11.23c-5.22,7.87-7.87,15.35-7.88,22.25l-.06,46.88c0,6.4,2.29,10.79,6.86,13.06a14.85,14.85,0,0,0,5.22,1.25,23.48,23.48,0,0,0,11.07-2.5c1-.48,2.1-1,3.18-1.64l0,0,1.28-.73a10.73,10.73,0,0,1,1.81-.86,3.19,3.19,0,0,1,2.33-.12c.88.4,1.32,1.55,1.32,3.42L167.15,424a8.37,8.37,0,0,1-1.72,4.79,16.15,16.15,0,0,1-4.17,4.14l-.2.12h0a6.76,6.76,0,0,1-2.53.91,4.29,4.29,0,0,1-1.83-.15c-1.17-.34-1.74-1.27-1.74-2.83l.07-43.34-2.94,1.7-18,10.46v.85L134,443.25c.65,6,3.56,9.81,8.65,11.27a14.78,14.78,0,0,0,3.29.54,24.81,24.81,0,0,0,11.7-2.73c1.1-.51,2.23-1.1,3.38-1.75l.2-.12a55.08,55.08,0,0,0,18-16.86c5.22-7.23,8.2-14.39,8.87-21.35l.06-48.51a25.27,25.27,0,0,0-2.6-12.05c-1.83-3.07-4.26-4.85-7.19-5.31s-6.53.23-10.75,2.19c-1.1.51-2.24,1.1-3.43,1.77l-3.68,2.12a6.25,6.25,0,0,1-2.47.89,2.52,2.52,0,0,1-1.55-.31c-1-.45-1.44-1.44-1.44-3l.06-47.06a8.66,8.66,0,0,1,1.75-5,15.35,15.35,0,0,1,3.06-3.35,11.35,11.35,0,0,1,1.27-.86l0,0A6.69,6.69,0,0,1,163,293a6.11,6.11,0,0,1,2.59-.05c1.17.34,1.74,1.32,1.73,3l-.05,34.58v1.56l20.94-12,.05-34.11c0-6.78-2.68-11.21-8-13.17-4.29-1.75-9.51-1.21-15.57,1.58-1.12.53-2.28,1.12-3.47,1.8l-.16.09"/><polyline class="cls-4" points="202.08 256.17 201.85 423.78 220.64 413.04 220.87 245.42 202.08 256.17"/><path d="M220.64,413l-18.79,10.74.23-167.61,18.79-10.75L220.64,413m-19.48-157.4v.88l-.23,167.27v1.56l20.62-11.78.23-169.2v-.52l-2.93,1.67-17.7,10.12"/><polyline class="cls-4" points="237.01 236.39 236.77 403.81 255.4 393.16 255.5 319.87 256.41 319.28 265.7 387.27 280.45 378.84 290.27 298.44 291.18 298 291.08 372.76 310.19 361.84 310.42 194.41 291.06 205.48 273.51 310.62 255.73 225.68 237.01 236.39"/><path d="M255.4,393.16l-18.63,10.65L237,236.39l18.72-10.71,17.78,84.94,17.56-105.14,19.35-11.07-.23,167.43-19.11,10.92.1-74.76-.91.44-9.82,80.4-14.75,8.43-9.29-68-.91.59-.1,73.29m-19.31-157.3v.88l-.24,167.09v1.56l20.46-11.69.06-42.3,0-9.54,0-15.33,8.3,60.8.18,1.28,0,.16,16.33-9.33L287,332.32l1.22-10,2-16.74-.1,67.18v1.56l20.94-12,.24-169v-.53l-2.93,1.67-18.08,10.34-.16,1L273.5,305.59l-1-4.94-.62-3-15.31-73.11-.08-.38-2.87,1.65-17.5,10"/><polyline class="cls-4" points="323.99 186.65 323.76 354.08 342.39 343.43 342.49 270.14 343.4 269.54 352.69 337.54 367.45 329.1 377.27 248.7 378.17 248.26 378.07 323.02 397.18 312.1 397.42 144.67 378.06 155.74 360.5 260.88 342.71 175.94 323.99 186.65"/><path d="M342.39,343.43l-18.63,10.65L324,186.65l18.72-10.71,17.79,84.94,17.56-105.14,19.36-11.07-.24,167.43L378.07,323l.1-74.76-.9.44-9.82,80.4-14.76,8.44-9.28-68-.92.6-.1,73.29M323.08,186.12V187l-.23,167.09v1.56L343.3,344l.06-42.3,0-9.51,0-15.36,8.31,60.8.17,1.29,0,.16,16.33-9.34L374,282.53l1.22-10,2-16.69L377.16,323v1.56l20.93-12,.24-169v-.52l-2.93,1.67-18.08,10.34-.16,1-16.67,99.78-1-4.94-.62-3-15.31-73.11-.07-.37-2.87,1.64-17.51,10"/><polyline class="cls-4" points="410.99 136.72 410.75 304.34 449.09 282.43 449.11 265.03 429.57 276.2 429.65 218.67 442.63 211.25 442.65 193.85 429.67 201.27 429.75 143.39 449.3 132.21 449.32 114.81 410.99 136.72"/><path d="M449.09,282.43l-38.34,21.91L411,136.72l38.33-21.91,0,17.4-19.55,11.18-.08,57.88,13-7.42,0,17.4-13,7.42-.08,57.53L449.11,265l0,17.4m-39-146.24v.89l-.23,167.28v1.56L450,283l0-19.51-2.94,1.67-16.61,9.5v-.51l.08-54.91,13-7.41,0-19.51L440.63,194l-10,5.74v-.51l.08-55.27,19.54-11.18,0-19.51-2.93,1.68-37.24,21.28"/><path class="cls-4" d="M482.35,177.06l-.46.26.1-66.2,7-4c1.91-1.1,3.56-1.45,4.91-1s2.11,1.57,2.11,3.46L496,130c0,5.43-.05,11.16-.11,17s0,10.39.06,13.78h0a14.55,14.55,0,0,1-.86,5.29,12.39,12.39,0,0,1-2.64,4,23.78,23.78,0,0,1-4.22,3.37Q486,175,483,176.68l-.67.38m-19.46-70-.23,167.62,19.11-10.93.1-69.75.45-.27,1-.6c4.7-2.71,7.85-3.91,9.63-3.66,1.94.28,2.93,2.12,2.92,5.5l-.08,60.74,19.11-10.92L515,180.9a13.23,13.23,0,0,0-1.07-6,8.47,8.47,0,0,0-2.32-3,6.37,6.37,0,0,0-3.24-1.17l-1-.06,1.09-1a16.4,16.4,0,0,0,3.16-4.06,29.6,29.6,0,0,0,2.32-5.33,22.79,22.79,0,0,0,1.09-7.31l.07-52.42a19.92,19.92,0,0,0-1.55-8.31,8.37,8.37,0,0,0-5.45-4.59,13.46,13.46,0,0,0-8.25-.37A45,45,0,0,0,489,92.11l-26.14,14.94"/><path d="M482.81,175.17l.09-63.52,4.64-2.65,1.47-.84a9.18,9.18,0,0,1,1.94-.86,4.32,4.32,0,0,1,2.43-.08c1.17.34,1.73,1.27,1.73,2.83l0,20.48c0,5.43,0,11.15-.1,17s-.05,10.41.06,13.81a12.84,12.84,0,0,1-.74,4.67,10,10,0,0,1-2.19,3.32,20.49,20.49,0,0,1-2.54,2.19c-.44.32-.91.64-1.4,1-1.51,1-3.32,2.07-5.36,3.25v-.58m-.82-64-.1,66.2.46-.26.67-.38q3-1.73,5.21-3.17a23.78,23.78,0,0,0,4.22-3.37,12.39,12.39,0,0,0,2.64-4,14.55,14.55,0,0,0,.86-5.29h0c-.1-3.39-.12-8-.06-13.78s.1-11.59.11-17l0-20.48c0-1.89-.7-3.06-2.11-3.46s-3-.06-4.91,1l-7,4m-.22,152.62-19.11,10.93.23-167.62L489,92.11a45,45,0,0,1,10.85-4.76,13.46,13.46,0,0,1,8.25.37,8.37,8.37,0,0,1,5.45,4.59,19.92,19.92,0,0,1,1.55,8.31L515.06,153a22.79,22.79,0,0,1-1.09,7.31,29.6,29.6,0,0,1-2.32,5.33,16.4,16.4,0,0,1-3.16,4.06l-1.09,1,1,.06a6.37,6.37,0,0,1,3.24,1.17,8.47,8.47,0,0,1,2.32,3,13.23,13.23,0,0,1,1.07,6l-.09,63.88L495.82,255.7,495.9,195c0-3.38-1-5.22-2.92-5.5-1.78-.25-4.93.95-9.63,3.66l-1,.6-.45.27-.1,69.75M462,106.52v.88l-.23,167.28v1.56l20.94-12,.1-69.76.64-.38,1-.55a28.82,28.82,0,0,1,6.17-2.75,5.16,5.16,0,0,1,1.92-.2c1.69.24,2.5,1.83,2.5,4.86l-.08,60.23v1.56l20.94-12,.1-64.93a14.07,14.07,0,0,0-1.16-6.38,9,9,0,0,0-2.47-3.15,7.07,7.07,0,0,0-2.64-1.15,21.09,21.09,0,0,0,2.63-3.65,31.55,31.55,0,0,0,2.5-5.72,24.3,24.3,0,0,0,1.17-7.82l.08-52.41a20.87,20.87,0,0,0-1.63-8.67,8.75,8.75,0,0,0-5.72-4.86,13.88,13.88,0,0,0-8.57-.36,33.24,33.24,0,0,0-5.61,2Q492,89.39,489,91.05l-27,15.47"/><path d="M314.8,564,111.91,681.16v1.35L314.8,565.37V564m221.65-128L332.09,554v1.34l204.36-118v-1.34M101.78,508.16l-1.16.67.47,167.35,1.16-.67-.47-167.35M546.44,251.43l-1.17.68.47,167.35,1.17-.67-.47-167.36m-.6-208.89-1.16.68.53,189,1.17-.67-.54-189M101.18,295.63l-1.17.67L100.56,489l1.16-.67-.54-192.65m214-133.79-204.36,118v1.34l204.36-118v-1.34m219-126.41L332.42,151.86v1.33L534.08,36.77V35.43"/><polyline class="cls-5" points="331.23 144.24 316.27 152.87 316.32 170.07 331.28 161.43 331.23 144.24"/><path d="M316.32,170.07l-.05-17.2,15-8.64,0,17.2-15,8.64m15.5-27.51-16.14,9.32a1.1,1.1,0,0,0-.41.42,1.36,1.36,0,0,0-.17.58l0,9v1.34l0,8.24a.4.4,0,0,0,.17.37.41.41,0,0,0,.41,0l16.13-9.31a1.31,1.31,0,0,0,.58-1l-.58.34v0l.58-.34,0-8.24v-1.33l0-9a.41.41,0,0,0-.18-.37.37.37,0,0,0-.4,0"/><polyline class="cls-5" points="109.58 272.21 94.62 280.85 94.67 298.04 109.63 289.4 109.58 272.21"/><path d="M94.67,298l0-17.2,15-8.63,0,17.2-15,8.63m15.49-27.51L94,279.85a1.14,1.14,0,0,0-.41.43,1.2,1.2,0,0,0-.17.57l0,18.54a.39.39,0,0,0,.17.37.41.41,0,0,0,.41,0L100,296.3l1.17-.67,9-5.22a1.15,1.15,0,0,0,.4-.44,1,1,0,0,0,.17-.56l-.58.33v0l.58-.33,0-8.24v-1.34l0-9a.42.42,0,0,0-.17-.38.44.44,0,0,0-.41,0"/><polyline class="cls-5" points="550.19 21.47 535.23 30.11 535.27 47.31 550.24 38.67 550.19 21.47"/><path d="M535.27,47.31l0-17.2,15-8.64,0,17.2-15,8.64m15.5-27.52L534.64,29.1a1.31,1.31,0,0,0-.58,1l0,5.32v1.34l0,11.88a.4.4,0,0,0,.17.37.43.43,0,0,0,.42,0l10-5.76,1.16-.68,5-2.87a1.25,1.25,0,0,0,.41-.44,1.17,1.17,0,0,0,.17-.57l-.59.34v0l.59-.34,0-18.54a.41.41,0,0,0-.18-.37.41.41,0,0,0-.41,0"/><polyline class="cls-5" points="552.56 416.87 537.59 425.51 537.64 442.71 552.61 434.07 552.56 416.87"/><path d="M537.64,442.71l0-17.2,15-8.64.05,17.2-15,8.64m15.5-27.52-6.23,3.6-1.17.67L537,424.51a1.14,1.14,0,0,0-.41.43,1.32,1.32,0,0,0-.17.58l0,10.53v1.34l0,6.66a.42.42,0,0,0,.17.38.41.41,0,0,0,.41,0l16.13-9.32a1.24,1.24,0,0,0,.42-.43,1.18,1.18,0,0,0,.16-.58l-.58.34v0l.58-.34,0-18.53a.42.42,0,0,0-.17-.38.41.41,0,0,0-.41,0"/><polyline class="cls-5" points="330.9 544.84 315.94 553.48 315.99 570.68 330.95 562.04 330.9 544.84"/><path d="M316,570.68l-.05-17.2,15-8.64L331,562l-15,8.64m15.49-27.52-16.13,9.32a1.21,1.21,0,0,0-.41.43,1.2,1.2,0,0,0-.17.58l0,10.54v1.34l0,6.65a.35.35,0,0,0,.58.34l16.14-9.31a1.15,1.15,0,0,0,.4-.44,1.18,1.18,0,0,0,.18-.57l-.59.33v0l.59-.33,0-6.66V554l0-10.54a.4.4,0,0,0-.17-.37.43.43,0,0,0-.41,0"/><polyline class="cls-5" points="110.71 671.97 95.75 680.61 95.8 697.8 110.76 689.17 110.71 671.97"/><path d="M95.8,697.81l0-17.2,15-8.64.05,17.2-15,8.64m15.49-27.52-9,5.22-1.16.67-5.93,3.43a1.14,1.14,0,0,0-.41.43,1.2,1.2,0,0,0-.17.58l0,18.53a.41.41,0,0,0,.18.37.39.39,0,0,0,.41,0l16.13-9.32a1.22,1.22,0,0,0,.41-.43,1.17,1.17,0,0,0,.17-.58l-.58.34v0l.58-.34,0-6.65v-1.35l0-10.53a.36.36,0,0,0-.59-.34"/><polyline class="cls-5" points="110.18 484.75 95.22 493.38 95.27 510.57 110.23 501.94 110.18 484.75"/><path d="M95.27,510.57l0-17.19,15-8.63,0,17.18-15,8.64m15.49-27.51-9,5.22-1.16.67-5.93,3.43a1.21,1.21,0,0,0-.41.43,1.2,1.2,0,0,0-.17.57l0,18.54a.36.36,0,0,0,.58.33l5.94-3.42,1.16-.67,9-5.22a1.31,1.31,0,0,0,.58-1l-.58.33v0l.58-.33-.06-18.54a.39.39,0,0,0-.17-.37.41.41,0,0,0-.41,0"/><polyline class="cls-5" points="552.03 229.64 537.06 238.28 537.11 255.47 552.08 246.83 552.03 229.64"/><path d="M537.11,255.47l-.05-17.19,15-8.64.05,17.19-15,8.64m15.5-27.5-6.23,3.59-1.17.67-8.74,5.05a1.31,1.31,0,0,0-.41.43,1.32,1.32,0,0,0-.17.57l.06,18.54a.39.39,0,0,0,.17.37.41.41,0,0,0,.41,0l8.74-5,1.17-.68,6.22-3.59a1.19,1.19,0,0,0,.42-.44,1.26,1.26,0,0,0,.16-.56l-.58.33v0l.58-.33,0-18.54a.35.35,0,0,0-.58-.33"/></g></g></svg>