<svg id="Layer_1" data-name="Layer 1" xmlns="http://www.w3.org/2000/svg" viewBox="0 0 36.45 37.3"><defs><style>.cls-1{fill:#fca903;}.cls-1,.cls-2,.cls-3{stroke:#000;stroke-miterlimit:10;stroke-width:0.98px;}.cls-2{fill:#c83a2e;}</style></defs><ellipse class="cls-1" cx="17.6" cy="18.65" rx="16.31" ry="18.88" transform="matrix(0.84, -0.54, 0.54, 0.84, -7.31, 12.55)"/><path class="cls-2" d="M21.39,3.39a2.08,2.08,0,0,0,.11,1.12,3.66,3.66,0,0,0,1.95,1.82,24.24,24.24,0,0,1,2.29,1.12,3.25,3.25,0,0,1,1.53,1.93,1.22,1.22,0,0,1-.49,1.38,1.33,1.33,0,0,1-.6.09c-.84,0-1.64-.44-2.48-.51a1.66,1.66,0,0,0-1.58,2.58,3.69,3.69,0,0,0,2.14,1.5c.77.26,1.58.41,2.34.72a3.34,3.34,0,0,1,1.54,1.12,1.77,1.77,0,0,1-.23,2.43,10.46,10.46,0,0,1-1.66,1,2,2,0,0,0-1.08,1.49,1.69,1.69,0,0,0,.23.85,1.66,1.66,0,0,0,.58.65,2.17,2.17,0,0,0,1.7.12,5.62,5.62,0,0,1,1.71-.32,2.09,2.09,0,0,1,1.92,2,2.22,2.22,0,0,1-.62,1.64c-.67.69-1.84,1.4-1,2.53a2.12,2.12,0,0,0,1.4.73,2.88,2.88,0,0,0,3.13-1.17c2.75-5.5,2.34-12.81-1.65-19A20.91,20.91,0,0,0,24.4,1.8,2.14,2.14,0,0,0,21.39,3.39Z"/><ellipse class="cls-1" cx="23.31" cy="32.42" rx="1.48" ry="0.83" transform="translate(-13.87 17.86) rotate(-32.89)"/><ellipse class="cls-1" cx="18.41" cy="32.99" rx="1.48" ry="0.83" transform="translate(-14.96 15.28) rotate(-32.89)"/><path class="cls-3" d="M24.6,31.53c-.25-.39-1-.34-1.69.11s-1,1.11-.79,1.49,1,.34,1.69-.1S24.85,31.91,24.6,31.53Z"/><path class="cls-3" d="M19.7,32.1c-.25-.39-1-.34-1.69.11s-1,1.11-.79,1.49,1,.34,1.69-.11S20,32.48,19.7,32.1Z"/><ellipse class="cls-1" cx="23.84" cy="4.25" rx="0.3" ry="0.63" transform="translate(1.51 13.63) rotate(-32.89)"/><ellipse class="cls-1" cx="26.44" cy="4.66" rx="0.3" ry="0.63" transform="translate(1.71 15.11) rotate(-32.89)"/><ellipse class="cls-1" cx="28.64" cy="9.93" rx="0.3" ry="0.63" transform="matrix(0.84, -0.54, 0.54, 0.84, -0.8, 17.14)"/><ellipse class="cls-1" cx="31.44" cy="12.65" rx="0.3" ry="0.63" transform="translate(-1.83 19.1) rotate(-32.89)"/><ellipse class="cls-1" cx="23.85" cy="12.96" rx="0.3" ry="0.63" transform="translate(-3.21 15.03) rotate(-32.89)"/><ellipse class="cls-1" cx="28.56" cy="14.15" rx="0.3" ry="0.63" transform="matrix(0.84, -0.54, 0.54, 0.84, -3.11, 17.78)"/><ellipse class="cls-1" cx="31.32" cy="18.23" rx="0.3" ry="0.63" transform="translate(-4.88 19.93) rotate(-32.89)"/><ellipse class="cls-1" cx="27.61" cy="21.06" rx="0.3" ry="0.63" transform="translate(-7.01 18.37) rotate(-32.89)"/><ellipse class="cls-1" cx="33.55" cy="25.68" rx="0.3" ry="0.63" transform="translate(-8.57 22.34) rotate(-32.89)"/><ellipse class="cls-1" cx="31.76" cy="27.22" rx="0.3" ry="0.63" transform="translate(-9.69 21.61) rotate(-32.89)"/></svg>